<svg width="17" height="17" viewBox="0 0 17 17" fill="none" xmlns="http://www.w3.org/2000/svg">
<path d="M8.5 0.5C6.91775 0.5 5.37103 0.969192 4.05544 1.84824C2.73985 2.72729 1.71447 3.97672 1.10897 5.43853C0.503466 6.90034 0.34504 8.50887 0.653721 10.0607C0.962403 11.6126 1.72433 13.038 2.84315 14.1569C3.96197 15.2757 5.38743 16.0376 6.93928 16.3463C8.49113 16.655 10.0997 16.4965 11.5615 15.891C13.0233 15.2855 14.2727 14.2602 15.1518 12.9446C16.0308 11.629 16.5 10.0822 16.5 8.5C16.4977 6.37898 15.6541 4.34549 14.1543 2.8457C12.6545 1.34591 10.621 0.502316 8.5 0.5V0.5ZM8.5 15.75C7.06609 15.75 5.66437 15.3248 4.47212 14.5282C3.27986 13.7315 2.35061 12.5992 1.80188 11.2745C1.25314 9.94969 1.10957 8.49196 1.38931 7.08559C1.66905 5.67923 2.35955 4.38741 3.37348 3.37348C4.38741 2.35954 5.67924 1.66905 7.0856 1.38931C8.49196 1.10956 9.94969 1.25314 11.2745 1.80187C12.5992 2.35061 13.7315 3.27986 14.5282 4.47211C15.3248 5.66437 15.75 7.06608 15.75 8.5C15.7477 10.4221 14.9831 12.2648 13.624 13.624C12.2648 14.9831 10.4221 15.7477 8.5 15.75Z" fill="#EC407A"/>
<path d="M11.4876 5.79488L6.80256 10.4024L5.52131 9.05363C5.45223 8.98427 5.35875 8.94467 5.26086 8.9433C5.16296 8.94193 5.06842 8.9789 4.99742 9.04631C4.92642 9.11372 4.88459 9.20622 4.88088 9.30405C4.87718 9.40189 4.91187 9.49729 4.97756 9.56988L6.52131 11.1949C6.55558 11.2308 6.59666 11.2596 6.64215 11.2796C6.68764 11.2996 6.73664 11.3103 6.78631 11.3111H6.79256C6.89076 11.3111 6.98501 11.2725 7.05506 11.2036L12.0113 6.32863C12.0464 6.29408 12.0744 6.25295 12.0937 6.20758C12.1129 6.16221 12.123 6.1135 12.1234 6.06423C12.1238 6.01495 12.1145 5.96608 12.096 5.92041C12.0775 5.87473 12.0502 5.83314 12.0157 5.79801C11.9811 5.76288 11.94 5.7349 11.8946 5.71567C11.8493 5.69644 11.8006 5.68633 11.7513 5.68593C11.702 5.68552 11.6531 5.69482 11.6075 5.7133C11.5618 5.73178 11.5202 5.75908 11.4851 5.79363L11.4876 5.79488Z" fill="#EC407A"/>
</svg>
