<svg width="56" height="56" viewBox="0 0 56 56" fill="none" xmlns="http://www.w3.org/2000/svg">
<path d="M52.5213 26.8643C52.5258 26.8643 52.5291 26.8643 52.5336 26.8643C52.8461 26.8643 53.144 26.7333 53.3557 26.5037C53.5707 26.2707 53.6771 25.9582 53.6491 25.6424C52.5247 13.2742 42.7325 3.47872 30.3632 2.352C30.0496 2.32736 29.7338 2.42928 29.5008 2.64544C29.2679 2.86048 29.1379 3.164 29.1413 3.48096C29.3362 19.9181 31.5045 26.6347 52.5213 26.8643ZM52.5213 29.1357C31.5045 29.3653 29.3373 36.0819 29.1424 52.519C29.1391 52.836 29.269 53.1395 29.5019 53.3546C29.7103 53.5461 29.9824 53.6525 30.2624 53.6525C30.296 53.6525 30.3307 53.6514 30.3643 53.648C42.7336 52.5213 52.5258 42.7269 53.6491 30.3576C53.6771 30.0418 53.5719 29.7293 53.3557 29.4963C53.1395 29.2634 52.8383 29.148 52.5213 29.1357ZM25.5618 2.3576C13.2317 3.5168 3.4709 13.3101 2.35202 25.6446C2.32402 25.9605 2.4293 26.273 2.64546 26.5059C2.85714 26.7355 3.15618 26.8654 3.46754 26.8654C3.47202 26.8654 3.4765 26.8654 3.48098 26.8654C24.4283 26.6246 26.5911 19.9114 26.7882 3.48544C26.7915 3.16848 26.6605 2.86384 26.4275 2.6488C26.1923 2.43376 25.8776 2.32848 25.5618 2.3576ZM3.47986 29.1346C3.13154 29.0954 2.85826 29.2611 2.64434 29.4941C2.4293 29.727 2.3229 30.0395 2.3509 30.3554C3.46978 42.6899 13.2317 52.4832 25.5618 53.6424C25.5965 53.6458 25.6323 53.6469 25.6671 53.6469C25.9471 53.6469 26.2181 53.5416 26.4264 53.3501C26.6594 53.135 26.7904 52.8304 26.7871 52.5134C26.5899 36.0886 24.4283 29.3754 3.47986 29.1346Z" fill="#7C7C7C"/>
</svg>
