<svg width="205" height="275" viewBox="0 0 205 275" fill="none" xmlns="http://www.w3.org/2000/svg">
<path d="M201.576 117.755C191.768 71.325 181.359 36.8319 156.39 22.7931C140.685 13.9607 120.849 22.1167 81.1783 38.4267C69.5616 43.202 58.7728 48.6466 46.9703 57.0371C31.715 67.8807 18.3316 82.3468 13.5548 88.5333C-16.3102 127.213 12.0631 202.491 29.0589 247.583C31.7052 254.603 34.931 261.017 41.0466 263.411C46.6206 265.593 50.7258 264.26 61.3113 265.351C66.1852 265.852 69.2863 267.94 71.0045 268.634C80.8491 272.596 91.6962 273.199 112.988 274.243C140.272 275.581 133.926 274.743 149.198 274.716C177.024 274.665 181.107 271.898 184.04 269.095C195.434 258.207 198.38 241.172 199.182 235.02C209.557 155.537 201.576 117.755 201.576 117.755Z" fill="#FAB217"/>
<path d="M117.894 231.851C118.563 242.111 119.232 252.371 119.901 262.632C122.399 262.611 124.898 262.59 127.398 262.571L129.125 230.833L117.894 231.851Z" fill="#F7906D"/>
<path d="M55.5298 185.65L57.8702 216.647L65.0694 217.012L68.0382 186.269L55.5298 185.65Z" fill="#F7906D"/>
<path d="M128.434 243.552C125.061 242.352 120.374 239.403 118.296 238.04C118.243 237.219 118.189 236.398 118.135 235.577C120.889 234.118 126.674 232.551 126.674 232.551C126.674 232.551 127.701 233.983 128.852 235.838L128.434 243.552Z" fill="#DA5026"/>
<path d="M66.5888 201.278C61.88 199.162 57.6639 195.603 56.1812 194.277L56.0469 192.499C57.7331 189.516 63.5827 187.574 63.5827 187.574L67.3695 193.191L66.5888 201.278Z" fill="#DA5026"/>
<path d="M88.4757 42.3541C84.9143 49.3936 80.9145 51.1613 80.0211 56.144C79.7934 57.4151 79.8594 58.9272 80.8746 59.7239C81.6358 60.3224 82.6909 60.3262 83.6587 60.3002C90.0226 60.1372 96.3866 59.9741 102.751 59.811C105.173 59.748 107.685 59.6647 109.857 58.5862C114.95 56.0532 116.071 49.4121 116.56 43.7457C116.879 40.0694 117.199 36.3931 117.516 32.7149C118.142 25.5031 118.502 17.4168 113.757 11.9505C112.699 10.7312 111.402 9.69167 109.903 9.09131C108.361 8.47427 106.669 8.33901 105.009 8.38533C97.0087 8.60583 89.259 13.1605 85.1745 20.0443C84.2591 21.5859 83.59 24.0486 84.243 26.7446C85.3464 31.3011 89.8467 32.3128 90.37 36.4505C90.5887 38.1794 89.8844 39.571 88.4757 42.3541Z" fill="#070809"/>
<path d="M115.373 38.7259C113.764 41.6933 111.044 41.8051 110.05 45.2324C109.75 46.2714 109.274 47.9671 110.025 49.4931C110.38 50.2164 111.003 50.8262 111.143 51.6199C111.286 52.4514 110.869 53.2595 110.629 54.0677C109.746 57.0296 111.262 60.1466 112.976 62.7171C114.69 65.2876 116.723 67.8635 117.024 70.939C117.453 75.3188 114.3 79.1177 112.485 83.1276C110.737 86.9825 110.196 91.2666 109.891 95.4876C109.772 97.1327 109.696 98.8409 110.31 100.372C110.923 101.902 112.422 103.203 114.064 103.053C116.376 102.844 117.547 100.114 117.655 97.7965C117.76 95.4786 117.341 92.9893 118.474 90.9653C119.984 88.2704 123.844 87.2188 124.638 84.2352C125.293 81.7639 123.454 79.2674 123.604 76.715C123.831 72.8024 128.44 70.4556 129.301 66.6333C130.661 60.5814 122.098 55.4963 123.666 49.4967C123.835 48.8437 123.987 48.3278 124.16 47.8173C124.86 45.7663 125.594 44.2529 125.913 43.6216C125.967 43.5188 126.001 43.452 126.023 43.4087C128.668 38.293 130.069 35.5818 130.486 32.7751C130.904 29.943 130.028 27.4898 128.273 22.5815C126.804 18.4705 125.765 17.6155 124.908 17.197C123.169 16.3474 120.796 16.6144 119.163 17.74C116.044 19.8866 115.905 24.95 115.756 30.4824C115.608 35.9011 116.499 36.6533 115.373 38.7259Z" fill="#1F1A1B"/>
<path d="M124.908 17.1983C126.545 18.4178 127.971 19.9376 129.101 21.6661C130.23 23.3946 131.022 25.3497 131.504 27.3587C131.736 28.3228 132.065 29.3157 132.257 30.3445C132.452 31.3715 132.556 32.4273 132.507 33.4903C132.459 34.5514 132.254 35.6162 131.878 36.6235C131.504 37.6235 131.036 38.5444 130.547 39.4563C129.574 41.2765 128.493 42.9996 127.673 44.8054C126.858 46.6023 126.363 48.5322 126.158 50.4909C125.746 54.4137 126.584 58.439 128.504 61.8762C129.475 63.6154 130.666 65.3295 131.421 67.3656C131.797 68.3746 132.056 69.488 131.986 70.6355C131.916 71.7776 131.514 72.9 130.914 73.8263C130.313 74.7579 129.583 75.5367 128.858 76.2706C128.137 77.0044 127.408 77.7005 126.788 78.4469C126.169 79.1897 125.689 80.0009 125.451 80.8697C125.214 81.7348 125.284 82.6827 125.426 83.6737C125.568 84.6612 125.789 85.699 125.737 86.8141C125.71 87.3681 125.608 87.9419 125.383 88.4725C125.16 89.0049 124.827 89.4797 124.448 89.8826C123.683 90.6902 122.766 91.2298 121.912 91.7729C121.057 92.3161 120.221 92.8647 119.595 93.5824C118.325 95.0302 118.118 97.2156 118.34 99.1563C118.566 101.144 119.516 103.034 120.814 104.603C120.106 103.867 119.491 103.038 118.998 102.131C118.505 101.228 118.133 100.244 117.949 99.2193C117.856 98.7066 117.796 98.185 117.798 97.6598C117.8 97.3954 117.8 97.1364 117.811 96.8828C117.822 96.6256 117.836 96.3612 117.868 96.0986C117.998 95.0482 118.37 94.0032 119.055 93.1363C119.394 92.7064 119.791 92.3431 120.199 92.0104C120.611 91.6758 121.037 91.3826 121.46 91.0913C121.881 90.7999 122.298 90.5175 122.69 90.2189C123.082 89.9204 123.448 89.6038 123.757 89.2531C124.063 88.9023 124.306 88.5156 124.467 88.1019C124.631 87.6883 124.699 87.2404 124.71 86.7764C124.73 85.8465 124.505 84.8698 124.327 83.8482C124.239 83.3374 124.16 82.8086 124.136 82.2582C124.115 81.7114 124.153 81.1359 124.289 80.5819C124.566 79.4685 125.153 78.4865 125.82 77.6573C126.491 76.8228 127.232 76.0943 127.926 75.3659C128.622 74.6374 129.281 73.9054 129.772 73.1086C130.261 72.3136 130.556 71.4611 130.61 70.5617C130.664 69.6642 130.451 68.7451 130.115 67.853C129.439 66.0526 128.273 64.3853 127.257 62.5686C125.198 58.8797 124.322 54.536 124.82 50.3452C125.07 48.2516 125.644 46.1904 126.541 44.2838C127.437 42.3827 128.579 40.6668 129.577 38.9185C130.076 38.048 130.556 37.1559 130.921 36.253C131.282 35.359 131.496 34.404 131.579 33.4309C131.662 32.4578 131.606 31.4668 131.455 30.4848C131.38 29.9919 131.281 29.5027 131.166 29.0117L130.987 28.2706C130.925 28.0224 130.871 27.7508 130.824 27.5098C130.448 25.5331 129.773 23.623 128.764 21.8711C127.759 20.1229 126.45 18.5329 124.908 17.1983Z" fill="#1F1A1B"/>
<path d="M102.15 226.688L42.5579 227.526L43.0722 264.074C47.741 265.299 52.0414 264.395 61.311 265.351C66.1849 265.852 69.2859 267.941 71.0041 268.634C79.143 271.91 87.9674 272.89 102.812 273.722L102.15 226.688Z" fill="white"/>
<path d="M120.3 49.2795C118.137 48.7021 115.179 48.1627 111.663 48.2509C106.316 48.3875 102.134 49.914 99.6323 51.0653C99.9146 55.6603 100.197 60.2536 100.479 64.8486C107.087 59.6589 113.693 54.4692 120.3 49.2795Z" fill="#F47660"/>
<path d="M35.3098 134.419L36.9559 131.572L39.7677 131.283L37.2652 129.81L36.6328 126.826L35.219 129.44L32.175 129.961L34.8961 131.264L35.3098 134.419Z" fill="white"/>
<path d="M27.1108 145.023L29.1237 141.541L32.5622 141.189L29.5022 139.387L28.7285 135.738L26.9998 138.935L23.2771 139.571L26.6048 141.166L27.1108 145.023Z" fill="white"/>
<path d="M25.8609 133.563L27.0165 131.563L28.9904 131.362L27.2337 130.329L26.7895 128.232L25.7971 130.067L23.6602 130.432L25.5704 131.348L25.8609 133.563Z" fill="white"/>
<path d="M173.66 203.427L171.058 206.61L167.531 206.4L170.321 208.719L170.503 212.529L172.773 209.599L176.631 209.545L173.537 207.401L173.66 203.427Z" fill="white"/>
<path d="M185.903 191.991L182.72 195.883L178.408 195.627L181.821 198.462L182.042 203.121L184.817 199.537L189.536 199.471L185.752 196.851L185.903 191.991Z" fill="white"/>
<path d="M185.144 206.38L183.316 208.613L180.841 208.466L182.801 210.095L182.927 212.769L184.521 210.712L187.23 210.674L185.057 209.17L185.144 206.38Z" fill="white"/>
<path d="M75.3163 55.0865C74.4811 58.4853 73.5894 63.8271 74.3597 70.2563C74.5534 71.8727 75.6036 80.6375 77.7476 80.8034C79.148 80.9141 81.4338 77.3874 85.2284 60.1621L75.3163 55.0865Z" fill="#272532"/>
<path d="M55.3825 81.0039C56.483 80.7792 57.5712 80.4006 58.5896 79.8647L90.9582 62.8227C95.1983 60.5909 96.619 56.4643 94.1313 53.6067C91.6437 50.7491 86.1902 50.2426 81.9495 52.4744L49.5811 69.5164C45.3408 71.7482 43.9202 75.8747 46.4078 78.7324C48.298 80.9037 51.9008 81.7179 55.3825 81.0039Z" fill="#F7906D"/>
<path d="M69.7213 74.0043L61.6748 63.1495L60.5554 63.739L59.6541 65.0857L63.4561 77.3027L69.7213 74.0043Z" fill="#F04F2D"/>
<path d="M132.509 128.429C131.224 123.599 129.684 117.911 127.901 111.553C124.06 97.8438 122.847 94.369 121.142 92.7354C120.884 92.4882 120.642 92.3378 120.2 92.0093C116.286 89.1102 102.911 79.1993 95.6815 82.9126C92.0351 84.7866 91.0163 89.5787 89.2374 97.9493C87.546 105.907 88.8614 108.858 85.9307 114.141C83.247 118.978 80.7809 119.522 80.4699 121.972C80.171 124.328 84.2261 127.964 100.935 133.776L115.71 236.433C119.263 238.466 123.854 240.148 129.739 240.839C130.066 239.849 130.23 238.784 130.249 237.688C130.826 204.119 132.41 170.574 133.49 137.017C133.582 134.122 133.254 131.229 132.509 128.429Z" fill="#272532"/>
<path d="M109.497 171.143C110.909 181.636 112.322 192.13 113.734 202.622C117.897 203.009 122.058 203.394 126.221 203.781L128.176 171.941L109.497 171.143Z" fill="#F7906D"/>
<path d="M132.509 128.429C131.224 123.599 129.684 117.911 127.901 111.553C124.06 97.8438 122.847 94.369 121.142 92.7354C120.884 92.4882 120.642 92.3378 120.2 92.0093C116.286 89.1102 102.911 79.1993 95.6815 82.9126C92.0351 84.7866 91.0163 89.5787 89.2374 97.9493C87.546 105.907 88.8614 108.858 85.9307 114.141C83.247 118.978 80.7809 119.522 80.4699 121.972C80.171 124.328 84.2261 127.964 100.935 133.776L108.453 186.007C110.801 185.628 113.701 185.536 116.251 186.555C121.636 188.702 126.828 189.125 126.828 189.125C126.311 189.672 125.486 190.425 124.321 191.029C121.126 192.687 117.823 191.952 113.94 191.029C112.564 190.702 110.868 190.223 108.956 189.499L115.71 236.433C119.263 238.466 123.854 240.148 129.739 240.839C130.066 239.849 130.247 238.784 130.249 237.688C131.33 204.131 132.41 170.574 133.49 137.017C133.582 134.122 133.254 131.229 132.509 128.429Z" fill="#8A4996"/>
<path d="M129.739 240.839C123.854 240.148 119.263 238.466 115.71 236.433L111.267 205.562C111.599 210.339 112.946 221.446 119.987 231.303C123.334 235.987 126.956 238.976 129.739 240.839Z" fill="#6A2777"/>
<path d="M128.831 239.022C128.825 239.022 128.818 239.022 128.811 239.02C128.717 239.01 128.65 238.925 128.662 238.832C128.707 238.451 128.729 238.068 128.729 237.687L131.971 137.012C132.064 134.13 131.736 131.257 130.996 128.474C129.509 122.881 124.33 104.335 123.633 102.046C123.605 101.956 123.656 101.861 123.747 101.834C123.837 101.806 123.932 101.858 123.96 101.948C124.657 104.238 129.839 122.793 131.326 128.385C132.075 131.202 132.406 134.108 132.311 137.022C132.311 137.022 129.048 238.479 129.001 238.872C128.99 238.958 128.916 239.022 128.831 239.022Z" fill="#6D72C0"/>
<path d="M102.995 137.448C102.931 137.448 102.869 137.413 102.841 137.351C102.8 137.266 102.836 137.164 102.921 137.123L116.177 130.792C116.262 130.751 116.364 130.787 116.405 130.872C116.445 130.958 116.409 131.058 116.324 131.1L103.068 137.432C103.045 137.443 103.019 137.448 102.995 137.448Z" fill="#6D72C0"/>
<path d="M120.106 138.547H105.632C105.537 138.547 105.46 138.435 105.46 138.341C105.462 138.246 105.538 138.206 105.632 138.206H120.106C120.202 138.206 120.278 138.319 120.276 138.412C120.276 138.507 120.2 138.547 120.106 138.547Z" fill="#6D72C0"/>
<path d="M48.9663 134.218C49.0107 131.72 49.1682 129.153 49.5643 126.679C50.0027 123.941 50.9018 119.889 53.449 116.462C56.6843 112.109 62.7489 111.157 73.95 109.169C83.4397 107.483 88.1846 106.641 91.9145 107.615C105.172 111.074 113.094 128.595 107.139 134.823C104.871 137.195 98.9609 137.975 87.1295 139.477C82.6142 140.049 78.8465 140.368 76.2546 140.551C74.8974 150.622 73.6423 160.886 72.5043 171.34C71.5175 180.404 70.6479 189.34 69.8869 198.144C63.8218 196.585 57.837 194.062 53.3661 191.929C51.799 173.084 49.1248 153.108 48.9663 134.218Z" fill="#8A4996"/>
<path d="M75.2961 147.834L73.8434 150.456C73.8872 155.923 73.4413 163.182 71.4567 171.459C69.002 181.693 67.2795 188.878 61.5479 191.542C59.5499 192.47 57.3826 192.681 54.4695 192.448C58.7974 194.46 64.3066 196.709 69.8872 198.144C70.6482 189.34 71.5177 180.404 72.5045 171.34C73.3696 163.394 75.2961 147.834 75.2961 147.834Z" fill="#6A2777"/>
<path d="M99.9999 137.622L99.4422 131.847C99.4422 131.847 98.124 119.61 98.0867 119.614C98.0663 119.616 98.1797 121.853 98.5846 124.719C98.8389 126.52 98.6947 128.377 99.2567 130.13C99.4056 130.593 99.7069 131.437 99.307 132.355C98.9468 133.181 98.1939 133.662 97.8917 133.85C96.8987 134.467 96.1818 134.415 92.9954 134.855C92.7824 134.884 93.7151 134.756 89.3185 135.411C87.3009 135.712 86.2921 135.862 86.1715 135.88C83.5312 136.231 79.233 136.805 77.052 136.735C76.7207 136.725 76.1228 136.689 75.4767 136.936C75.4767 136.936 75.2724 137.014 74.2832 137.572C74.4723 137.638 75.9553 138.174 76.291 139.417C76.4165 139.882 76.339 140.288 76.2547 140.551C77.4797 140.464 79.0879 140.34 80.9709 140.16C82.8011 139.987 84.872 139.764 87.1296 139.477C92.6192 138.781 96.8322 138.239 99.9999 137.622Z" fill="#6A2777"/>
<path d="M71.798 134.554C71.4204 133.864 71.0633 133.176 70.7506 132.529C69.6715 130.299 69.5532 129.502 69.641 129.393C69.8926 129.34 71.3079 130.576 72.5001 132.159C73.4887 133.471 74.0136 134.675 74.211 135.128C74.211 135.128 75.2638 137.479 75.9781 138.99C75.1224 137.674 73.558 135.928 71.798 134.554ZM77.0532 140.494C75.9743 138.248 75.148 136.464 74.5248 135.036L74.5187 135.022C74.3168 134.559 73.7798 133.328 72.7652 131.981C71.8939 130.825 70.3357 129.172 69.6761 129.077C69.5359 129.058 69.4493 129.103 69.4016 129.146C69.2415 129.288 69.147 129.661 69.8412 131.312C70.1768 132.111 70.6423 133.074 71.185 134.097C70.8892 133.886 70.5893 133.688 70.2883 133.506C68.6785 132.534 68.2266 132.498 68.0283 132.553C67.9349 132.581 67.8684 132.638 67.8361 132.723C67.7788 132.87 67.6449 133.214 69.5681 135.351C70.5388 136.429 71.8915 137.795 73.0984 138.915C74.0831 139.828 75.1001 140.694 76.1283 141.501C76.1444 141.38 76.1603 141.258 76.1766 141.137C75.2074 140.371 74.2492 139.551 73.3195 138.689C72.1258 137.581 70.7865 136.229 69.8241 135.16C68.1809 133.337 68.1443 132.923 68.1505 132.866C68.1994 132.849 68.5466 132.823 70.1282 133.779C70.6109 134.07 71.0837 134.4 71.5395 134.752C71.6066 134.875 71.6746 134.998 71.7434 135.121C72.5026 136.479 74.9931 140.772 76.2017 140.948C76.2056 140.921 76.2094 140.891 76.2134 140.862C76.2129 140.858 76.2122 140.855 76.2117 140.851H76.2148C76.2246 140.777 76.2341 140.705 76.244 140.632C76.0991 140.632 75.4799 140.442 73.7555 137.83C73.2574 137.074 72.7272 136.203 72.2176 135.306C74.643 137.38 76.4272 139.956 76.3354 140.545C76.4431 140.537 76.5531 140.53 76.6648 140.521C76.6629 140.485 76.6592 140.445 76.652 140.404C76.6701 140.442 76.6888 140.48 76.7071 140.518C76.8198 140.511 76.9365 140.502 77.0532 140.494Z" fill="#6D72C0"/>
<path d="M98.4428 128.208C97.4882 128.208 96.5545 128.038 95.6613 127.703C94.0928 127.117 93.0346 126.15 92.4233 125.443L92.386 125.4L91.4635 111.558C91.4571 111.463 91.5284 111.382 91.6224 111.376C91.7157 111.368 91.7977 111.44 91.8041 111.535L92.7191 125.262C93.3097 125.936 94.3113 126.833 95.7809 127.383C96.7609 127.751 97.7921 127.91 98.8463 127.855C98.9359 127.85 99.0206 127.922 99.0254 128.017C99.0304 128.111 98.958 128.192 98.8638 128.195C98.7231 128.204 98.5827 128.208 98.4428 128.208Z" fill="#6D72C0"/>
<path d="M67.3375 196.147C67.3318 196.147 67.3261 196.146 67.3202 196.146C67.2263 196.137 67.1579 196.052 67.1674 195.959L72.833 139.643C72.9972 138.011 74.5998 136.72 76.5607 136.642C82.9822 136.388 92.8646 134.732 96.8155 134.032C98.1217 133.8 99.105 132.922 99.2701 131.845L96.9167 112.289C96.9055 112.196 96.9722 112.111 97.0659 112.099C97.1595 112.089 97.2445 112.154 97.2558 112.248L99.6145 131.848L99.6114 131.871C99.4354 133.105 98.3357 134.108 96.8749 134.367C92.9173 135.069 83.0167 136.729 76.5744 136.984C74.7824 137.055 73.32 138.214 73.1727 139.678L67.5071 195.994C67.4983 196.082 67.4239 196.147 67.3375 196.147Z" fill="#6D72C0"/>
<path d="M92.1044 109.807C92.077 109.807 92.0494 109.8 92.0236 109.786L88.0815 107.666C87.9986 107.622 87.9675 107.518 88.0121 107.435C88.0568 107.352 88.1602 107.321 88.2434 107.366L92.1854 109.487C92.2684 109.53 92.2995 109.634 92.2549 109.717C92.224 109.774 92.1652 109.807 92.1044 109.807Z" fill="#6D72C0"/>
<path d="M89.2825 111.005C89.2154 111.005 89.152 110.965 89.1247 110.899L88.0755 108.368C88.0395 108.28 88.0808 108.182 88.168 108.145C88.2549 108.109 88.3548 108.15 88.391 108.237L89.4402 110.768C89.4761 110.856 89.4348 110.956 89.3477 110.991C89.3264 110.999 89.3043 111.005 89.2825 111.005Z" fill="#6D72C0"/>
<path d="M94.2713 126.996C94.2323 126.996 94.1932 126.983 94.1612 126.956L89.2498 122.798C89.1779 122.738 89.1689 122.629 89.23 122.558C89.2908 122.485 89.3987 122.477 89.4704 122.537L94.3816 126.695C94.4537 126.757 94.4625 126.864 94.4017 126.935C94.3678 126.975 94.3197 126.996 94.2713 126.996Z" fill="#6D72C0"/>
<path d="M92.8427 260.988C92.9411 260.986 93.0196 260.905 93.0182 260.806L92.5837 229.925C92.5824 229.827 92.5016 229.749 92.4033 229.751C92.3049 229.752 92.2264 229.832 92.2278 229.931L92.6624 260.811C92.6636 260.91 92.7443 260.988 92.8427 260.988Z" fill="#3E2D6F"/>
<path d="M45.9721 230.76L89.1013 230.153C89.1998 230.152 89.2781 230.07 89.2769 229.972C89.2755 229.873 89.1948 229.796 89.0964 229.797L45.9671 230.404C45.8687 230.406 45.7902 230.485 45.7918 230.584C45.793 230.682 45.8737 230.76 45.9721 230.76Z" fill="#3E2D6F"/>
<path d="M159.206 170.185L159.56 170.152C159.551 170.062 158.715 160.957 159.697 148.959C160.602 137.894 163.284 122.036 170.913 109.322L170.608 109.139C166.376 116.189 160.988 128.818 159.342 148.937C158.358 160.964 159.197 170.095 159.206 170.185Z" fill="#3E2D6F"/>
<path d="M50.0714 90.2443C52.2643 90.2132 54.86 89.7966 57.8489 88.9892C62.8342 87.6443 67.111 85.6597 67.1537 85.6406L67.0465 85.4107C66.8772 85.4885 50.039 93.2575 43.9272 88.3513C41.7818 86.6278 41.1917 83.5143 42.1734 79.0939L41.926 79.0385C40.9216 83.5609 41.5416 86.7609 43.7687 88.5484C45.2252 89.717 47.3341 90.2823 50.0714 90.2443Z" fill="#3E2D6F"/>
<path d="M178.878 246.732L179.146 246.497C169.82 235.843 162.462 223.99 157.281 211.272C148.684 190.171 146.153 167.085 149.758 142.658C151.808 128.762 155.903 114.54 161.603 101.526L161.276 101.384C155.566 114.426 151.46 128.681 149.405 142.606C145.792 167.097 148.33 190.245 156.951 211.407C162.148 224.162 169.526 236.047 178.878 246.732Z" fill="#3E2D6F"/>
<path d="M116.338 49.1205L111.855 29.0341L103.457 31.9989L104.956 49.6201C104.956 49.6201 108.273 55.9715 116.338 49.1205Z" fill="#F47660"/>
<path d="M98.505 42.2971C97.6769 42.1069 97.0543 41.6953 97.0543 41.6953C96.8719 41.5746 96.7001 41.4355 96.5327 41.2764C96.5327 41.2764 96.2657 41.0258 96.037 40.7258C93.1768 36.9685 95.2272 29.6095 95.2272 29.6095C95.8473 27.3833 96.4054 26.6278 97.8211 23.5712C98.9624 21.1072 100.53 17.4304 102.052 12.6799C102.315 12.6506 104.992 12.4146 107.717 12.2079C108.849 12.2537 115.876 12.636 119.163 17.7396C123.321 24.1968 118.199 33.1015 113.9 37.2228C113.426 37.6765 112.943 38.0917 112.454 38.4722C111.365 39.5276 109.266 41.2618 106.147 42.1727C106.147 42.1727 102.543 43.2264 98.505 42.2971Z" fill="#F47660"/>
<path d="M112.453 38.4731C112.177 38.62 111.909 38.7756 111.641 38.9295C111.508 39.0055 111.378 39.0868 111.245 39.1629C111.112 39.2389 110.97 39.3012 110.833 39.3703L110.019 39.7921C109.737 39.9131 109.462 40.0445 109.184 40.1655C108.069 40.6548 106.925 41.061 105.749 41.3687C104.577 41.6765 103.386 41.9219 102.177 42.0775C101.874 42.1156 101.571 42.1536 101.267 42.1795L100.81 42.2245L100.352 42.2539C99.7398 42.2954 99.1253 42.3213 98.5046 42.2971C99.1024 42.4803 99.7272 42.5512 100.349 42.61L100.817 42.6411L101.285 42.6532C101.599 42.6688 101.911 42.6515 102.224 42.6411C103.476 42.5979 104.724 42.3887 105.939 42.0689C107.155 41.7491 108.335 41.2806 109.431 40.6721C109.706 40.5199 109.979 40.3678 110.247 40.207C110.247 40.207 111.278 39.4948 111.399 39.3962C111.52 39.2994 111.637 39.1957 111.755 39.0937C111.99 38.888 112.225 38.684 112.453 38.4731Z" fill="#F04F2D"/>
<path d="M114.806 32.7218C113.905 34.2102 113.848 35.8249 114.68 36.3297C115.513 36.8327 116.919 36.034 117.819 34.5456C118.722 33.0571 118.777 31.4408 117.945 30.9377C117.114 30.4329 115.708 31.2316 114.806 32.7218Z" fill="#F47660"/>
<path d="M116.158 33.0378C116.151 33.1831 116.128 33.3248 116.082 33.4527C116.037 33.5807 115.987 33.6982 115.919 33.8019C115.885 33.8521 115.84 33.897 115.791 33.9368C115.746 33.9783 115.715 34.025 115.696 34.0837C115.682 34.1442 115.66 34.2047 115.655 34.2877C115.644 34.3655 115.634 34.4502 115.644 34.5712C115.648 34.5954 115.665 34.6179 115.688 34.6214C115.916 34.6559 116.092 34.5816 116.227 34.4641C116.374 34.35 116.379 34.139 116.412 33.9731C116.445 33.8019 116.443 33.6256 116.409 33.4631C116.372 33.2989 116.317 33.1467 116.22 33.0136C116.208 32.9998 116.187 32.9963 116.172 33.0067C116.163 33.0136 116.16 33.0223 116.158 33.0326V33.0378Z" fill="#F04F2D"/>
<path d="M118.094 32.1479C118.001 31.9387 117.816 31.7762 117.591 31.6828C117.366 31.5912 117.098 31.5878 116.862 31.6638C116.621 31.7416 116.435 31.9006 116.281 32.0683C116.212 32.1582 116.149 32.255 116.096 32.3519C116.051 32.4556 116.008 32.5576 115.982 32.6682C116.085 32.6129 116.17 32.5489 116.255 32.4884C116.34 32.4279 116.428 32.3761 116.505 32.3173C116.675 32.2187 116.83 32.1202 116.996 32.0701C117.159 32.0182 117.325 31.994 117.506 32.0078C117.69 32.0199 117.882 32.0718 118.094 32.1479Z" fill="#F04F2D"/>
<path d="M102.624 25.1308C102.3 25.8868 101.967 26.592 101.565 27.2535C101.165 27.9115 100.713 28.524 100.205 29.0875C100.078 29.2275 99.9456 29.364 99.8119 29.497C99.6792 29.6299 99.5371 29.7559 99.3814 29.9187C99.2284 30.0762 99.0638 30.2634 98.95 30.5119C98.8933 30.6362 98.8501 30.7709 98.8331 30.9127C98.8161 31.0544 98.8235 31.1927 98.8499 31.3239C98.9561 31.8524 99.3229 32.2286 99.72 32.4334C100.119 32.6399 100.531 32.7081 100.939 32.7449C100.593 32.5226 100.238 32.3231 99.9756 32.0694C99.844 31.9416 99.7429 31.8104 99.6701 31.6617C99.5978 31.5164 99.5565 31.3659 99.5565 31.2312C99.5567 31.0947 99.5896 30.9879 99.6601 30.8794C99.7303 30.7709 99.8399 30.6554 99.9762 30.5399C100.11 30.4244 100.271 30.2879 100.429 30.1462C100.508 30.0744 100.582 30.0009 100.657 29.9257C100.731 29.8504 100.805 29.7752 100.876 29.6965C101.439 29.0665 101.896 28.3437 102.204 27.565C102.51 26.788 102.671 25.9533 102.624 25.1308Z" fill="#F04F2D"/>
<path d="M113.379 26.3532C112.008 25.1907 110.261 24.2867 108.441 23.803L108.436 23.8012C108.049 23.6992 107.704 23.854 107.669 24.146C107.63 24.4397 107.913 24.7598 108.298 24.8618C108.313 24.8653 108.327 24.8688 108.339 24.8723C109.885 25.2135 111.418 25.9276 112.678 26.9019C112.927 27.0936 113.279 27.1235 113.466 26.9652C113.647 26.814 113.606 26.5449 113.379 26.3532Z" fill="#1F1A1B"/>
<path d="M98.5671 21.1313C99.2191 21.1883 99.8765 21.3342 100.499 21.5602C101.122 21.788 101.714 22.0959 102.244 22.4696C102.526 22.669 102.908 22.6601 103.098 22.4501C103.287 22.2418 103.212 21.9108 102.93 21.7133C102.92 21.7062 102.911 21.699 102.901 21.6937L102.896 21.6901C102.23 21.2666 101.501 20.9284 100.75 20.6935C99.9984 20.4586 99.2262 20.3269 98.4742 20.2984C98.2047 20.2895 98.0138 20.4693 98.0476 20.6989C98.0801 20.9213 98.3095 21.11 98.5671 21.1313Z" fill="#1F1A1B"/>
<path d="M95.9773 25.83C96.3766 25.4756 96.8081 25.1862 97.2681 25.0142C97.7272 24.8441 98.21 24.8037 98.6718 24.8774C99.1347 24.9528 99.5746 25.1405 99.9702 25.4055C100.367 25.6704 100.712 26.016 101.031 26.4089C100.865 25.9247 100.568 25.4826 100.176 25.1388C99.7847 24.7949 99.296 24.5441 98.7611 24.4616C98.4932 24.4195 98.2165 24.4178 97.9432 24.4599C97.67 24.5002 97.4015 24.5879 97.1539 24.716C96.6594 24.9721 96.2471 25.3669 95.9773 25.83Z" fill="#3D1213"/>
<path d="M105.667 29.4309C106.067 29.0758 106.498 28.7883 106.959 28.6168C107.418 28.4453 107.899 28.4054 108.362 28.4799C108.824 28.5544 109.264 28.7415 109.659 29.0065C110.058 29.2716 110.402 29.618 110.721 30.0112C110.555 29.5245 110.259 29.0845 109.867 28.7398C109.476 28.395 108.985 28.1456 108.452 28.0625C108.183 28.0209 107.906 28.0192 107.634 28.0607C107.361 28.1023 107.09 28.1889 106.844 28.3171C106.349 28.5735 105.938 28.9684 105.667 29.4309Z" fill="#3D1213"/>
<path d="M119.211 41.9392C117.482 41.9963 115.753 42.0533 114.025 42.1086C114.258 40.6461 114.493 39.1888 114.727 37.7263H117.653C118.172 39.1283 118.692 40.5372 119.211 41.9392Z" fill="#F7944B"/>
<path d="M117.045 36.0201C116.929 36.6304 116.341 37.0297 115.733 36.9156C115.122 36.8015 114.721 36.2137 114.837 35.6035C114.951 34.9932 115.539 34.5922 116.149 34.708C116.758 34.8238 117.159 35.4099 117.045 36.0201Z" fill="#F7944B"/>
<path d="M116.658 38.7375L115.373 38.7255L115.392 36.5334L116.678 36.5438L116.658 38.7375Z" fill="#C46D53"/>
<path d="M104.403 34.0286C104.403 34.0286 100.681 35.74 97.0527 34.2516C97.1203 34.6146 97.3646 35.6501 98.3182 36.4609C98.4043 36.5335 100.158 37.9736 102.174 37.1922C103.493 36.6822 104.371 35.4358 104.403 34.0286Z" fill="#310D14"/>
<path d="M97.2652 34.9831C97.1397 34.6667 97.0806 34.4005 97.0527 34.2518C100.681 35.7403 104.403 34.0288 104.403 34.0288C104.396 34.34 104.345 34.6425 104.259 34.9312C102.432 35.7679 98.795 37.0645 97.2652 34.9831Z" fill="white"/>
<path d="M103.662 36.0895C103.284 36.5735 102.776 36.9607 102.174 37.1924C101.316 37.5243 100.507 37.4552 99.8521 37.2598C100.542 36.7153 101.325 36.2762 102.207 36.1828C102.686 36.1327 103.201 36.1811 103.662 36.0895Z" fill="#EF3056"/>
<path d="M118.449 16.7719C114.955 12.5884 108.773 12.25 107.717 12.2079C104.992 12.4146 102.315 12.6506 102.052 12.6799C101.639 13.9695 101.222 15.1768 100.812 16.3054C101.785 16.4829 102.874 16.375 103.829 16.1116C105.68 15.6012 107.539 14.6994 109.426 15.0433C111.459 15.4128 112.98 17.1378 114.922 17.8402C117.315 18.7054 118.323 18.003 118.449 16.7719Z" fill="#F04F2D"/>
<path d="M123.801 97.8454C112.144 98.6009 100.485 99.3563 88.8268 100.112C88.4224 102.532 88.2886 104.448 88.1348 106.154C89.8953 106.982 91.8134 107.727 93.8913 108.33C107.414 112.258 119.818 107.881 126.053 105.059C125.141 101.924 124.42 99.5967 123.801 97.8454Z" fill="#6A2777"/>
<path d="M98.8365 103.49L94.7341 103.066V109.136L99.2215 109.979V108.51" stroke="#F9AD43" stroke-width="4" stroke-miterlimit="10" stroke-linecap="round" stroke-linejoin="round"/>
<path d="M94.1074 105.919L95.6436 106.245" stroke="#F9AD43" stroke-width="4" stroke-miterlimit="10" stroke-linecap="round" stroke-linejoin="round"/>
<path d="M131.514 51.47C129.277 50.3653 121.035 48.9408 117.939 48.4326C117.52 47.0375 117.102 45.6441 116.683 44.249C114.692 44.6518 112.472 45.0027 110.05 45.2326C107.761 45.4505 105.63 45.53 103.688 45.5213C103.424 46.4203 103.158 47.3175 102.893 48.2165C101.34 48.2649 99.902 48.3271 98.5969 48.3945C95.4242 48.5605 93.0226 48.7576 91.1749 49.0134C88.7619 48.2337 86.1048 48.557 83.8929 49.8484C75.6694 54.6526 67.4459 59.4568 59.2224 64.2627L66.3993 77.9596C66.3993 77.9596 73.5391 72.699 80.6255 69.876C80.249 71.0844 79.9268 72.4345 79.7117 74.0111C79.6379 74.5522 79.6189 75.121 79.6588 75.7952C79.8811 79.5552 81.579 80.876 83.6882 85.4192C85.298 88.8853 87.1077 94.1511 87.4474 101.529C91.0653 103.014 99.2952 105.806 109.613 104.122C116.931 102.928 122.323 99.9683 125.395 97.9491C123.699 84.5842 129.772 73.1087 129.772 73.1087C129.772 73.1087 134.925 73.8746 137.913 75.3215C141.802 77.2059 144.482 79.633 146.091 81.3341L151.675 66.7556C151.675 66.7556 134.287 52.8409 131.514 51.47Z" fill="white"/>
<path d="M130.085 73.1589L127.146 68.3547C127.146 68.3547 123.173 83.8201 125.16 90.8838C125.713 80.781 129.772 73.1088 129.772 73.1088C129.772 73.1088 129.886 73.1261 130.085 73.1589Z" fill="#A6D2CA"/>
<path d="M91.1906 49.017C88.7735 48.2321 86.1097 48.5537 83.8929 49.8485C75.6694 54.6527 67.4459 59.4569 59.2224 64.2628L66.3993 77.9597C66.3993 77.9597 73.608 72.6473 80.7279 69.8346C87.3922 61.502 90.3837 51.9489 91.1906 49.017Z" fill="#A6D2CA"/>
<path d="M192.495 82.9834C190.13 83.63 187.773 81.5019 185.988 79.9149C185.711 79.6711 182.58 76.8654 183.069 76.1376C183.268 75.8419 183.806 76.2759 184.833 76.186C187.343 75.9647 188.624 72.9532 191.163 72.668C191.241 72.6593 191.303 72.6524 191.345 72.649C192.906 72.4916 193.765 72.3931 194.41 72.9653C196.657 74.9568 193.663 82.4492 193.663 82.4527C193.414 82.6152 193.017 82.8399 192.495 82.9834Z" fill="#E97C6C"/>
<path d="M148.977 39.9687L136.49 105.519L184.075 114.583L196.56 49.0325L148.977 39.9687Z" fill="#F9EAE3"/>
<path d="M160.276 51.47L159.436 55.8835L163.847 56.7254L164.689 52.3119L160.276 51.47ZM163.948 57.0781L159.213 56.1757C159.123 56.1601 159.064 56.0737 159.081 55.9838L159.984 51.247C159.99 51.2055 160.016 51.1675 160.053 51.1433C160.089 51.1174 160.132 51.1087 160.175 51.1174L164.912 52.0198C164.954 52.0267 164.992 52.0526 165.018 52.0889C165.042 52.1235 165.051 52.1684 165.042 52.2117L164.139 56.9484C164.126 57.0262 164.058 57.0798 163.98 57.0815C163.97 57.0815 163.96 57.0798 163.948 57.0781Z" fill="#272532"/>
<path d="M152.488 49.9866L151.646 54.4001L156.059 55.2403L156.899 50.8285L152.488 49.9866ZM156.159 55.5947L151.423 54.6923C151.335 54.675 151.276 54.5903 151.293 54.5004L152.194 49.7636C152.211 49.6754 152.297 49.6167 152.387 49.634L157.122 50.5364C157.212 50.5519 157.271 50.6384 157.254 50.7283L156.351 55.4633C156.338 55.5428 156.268 55.5964 156.192 55.5981C156.182 55.5981 156.17 55.5964 156.159 55.5947Z" fill="#272532"/>
<path d="M158.728 59.5882L157.888 64.0017L162.302 64.8419L163.142 60.4284L158.728 59.5882ZM162.402 65.1963L157.665 64.2939C157.577 64.2766 157.518 64.1901 157.535 64.1002L158.436 59.3652C158.445 59.322 158.469 59.2839 158.505 59.2597C158.542 59.2355 158.587 59.2252 158.63 59.2338L163.365 60.1362C163.408 60.1449 163.446 60.1691 163.47 60.2054C163.495 60.2417 163.505 60.2849 163.496 60.3281L162.594 65.0649C162.58 65.1427 162.511 65.198 162.435 65.198C162.424 65.198 162.412 65.198 162.402 65.1963Z" fill="#272532"/>
<path d="M150.94 58.1051L150.1 62.5168L154.514 63.3587L155.354 58.9452L150.94 58.1051ZM154.614 63.7114L149.877 62.8107C149.834 62.8021 149.796 62.7761 149.772 62.7415C149.747 62.7052 149.739 62.6603 149.746 62.6171L150.648 57.882C150.657 57.8388 150.681 57.8008 150.717 57.7766C150.754 57.7507 150.799 57.742 150.84 57.7507L155.577 58.6531C155.667 58.6703 155.725 58.7551 155.708 58.845L154.806 63.5817C154.79 63.6595 154.723 63.7131 154.647 63.7148C154.636 63.7148 154.624 63.7148 154.614 63.7114Z" fill="#272532"/>
<path d="M157.183 67.7044L156.343 72.1179L160.756 72.9581L161.596 68.5446L157.183 67.7044ZM160.857 73.3125L156.12 72.4101C156.03 72.3928 155.971 72.3064 155.988 72.2182L156.891 67.4814C156.908 67.3915 156.993 67.3328 157.083 67.35L161.819 68.2525C161.863 68.2611 161.901 68.2853 161.925 68.3216C161.949 68.3579 161.958 68.4028 161.951 68.4443L161.048 73.1811C161.04 73.2243 161.016 73.2624 160.979 73.2866C160.952 73.3056 160.92 73.3142 160.889 73.3142C160.877 73.316 160.867 73.3142 160.857 73.3125Z" fill="#272532"/>
<path d="M149.395 66.2215L148.555 70.635L152.968 71.4752L153.808 67.0617L149.395 66.2215ZM153.067 71.8296L148.332 70.9271C148.288 70.9185 148.25 70.8943 148.226 70.858C148.202 70.8217 148.192 70.7768 148.2 70.7353L149.103 65.9985C149.12 65.9086 149.205 65.8498 149.295 65.8671L154.031 66.7695C154.12 66.7868 154.178 66.8732 154.161 66.9614L153.26 71.6982C153.252 71.7414 153.227 71.7794 153.191 71.8036C153.164 71.8209 153.132 71.8313 153.101 71.8313C153.089 71.8313 153.079 71.8313 153.067 71.8296Z" fill="#272532"/>
<path d="M155.638 75.8211L154.797 80.2346L159.209 81.0748L160.051 76.6613L155.638 75.8211ZM159.309 81.4292L154.574 80.5268C154.484 80.5095 154.426 80.4248 154.443 80.3349L155.345 75.5981C155.363 75.5099 155.447 75.4511 155.537 75.4684L160.274 76.3691C160.362 76.3864 160.421 76.4728 160.404 76.5627L159.503 81.2978C159.487 81.3773 159.42 81.4309 159.344 81.4326C159.332 81.4326 159.321 81.4309 159.309 81.4292Z" fill="#272532"/>
<path d="M147.849 74.3379L147.008 78.7514L151.421 79.5916L152.261 75.1781L147.849 74.3379ZM151.521 79.946L146.785 79.0436C146.696 79.0263 146.638 78.9399 146.655 78.8517L147.557 74.1149C147.564 74.0717 147.59 74.0337 147.625 74.0095C147.661 73.9853 147.706 73.9766 147.749 73.9836L152.484 74.8859C152.574 74.9032 152.633 74.9897 152.616 75.0778L151.713 79.8146C151.706 79.8578 151.68 79.8959 151.644 79.9201C151.618 79.9391 151.587 79.9477 151.554 79.9495C151.544 79.9495 151.532 79.9477 151.521 79.946Z" fill="#272532"/>
<path d="M154.063 84.0899L153.222 88.5034L157.634 89.3436L158.476 84.9301L154.063 84.0899ZM157.734 89.698L152.999 88.7956C152.91 88.7783 152.851 88.6918 152.868 88.6037L153.77 83.8669C153.777 83.8237 153.803 83.7856 153.84 83.7614C153.876 83.7372 153.919 83.7286 153.962 83.7372L158.699 84.6379C158.741 84.6466 158.779 84.6708 158.805 84.7071C158.829 84.7434 158.837 84.7883 158.829 84.8315L157.928 89.5666C157.913 89.6461 157.845 89.6997 157.769 89.7014C157.757 89.7014 157.747 89.6997 157.734 89.698Z" fill="#272532"/>
<path d="M146.274 82.6065L145.433 87.02L149.846 87.8602L150.686 83.4467L146.274 82.6065ZM149.946 88.2146L145.21 87.3122C145.121 87.2949 145.063 87.2084 145.08 87.1203L145.982 82.3835C145.998 82.2953 146.084 82.2365 146.174 82.2521L150.909 83.1545C150.952 83.1632 150.991 83.1874 151.015 83.2237C151.041 83.26 151.049 83.3049 151.041 83.3481L150.138 88.0832C150.131 88.1264 150.105 88.1644 150.069 88.1886C150.043 88.2076 150.012 88.2163 149.979 88.218C149.969 88.218 149.957 88.2163 149.946 88.2146Z" fill="#272532"/>
<path d="M152.517 92.2081L151.675 96.6199L156.089 97.4618L156.929 93.0483L152.517 92.2081ZM156.189 97.8144L151.452 96.912C151.409 96.9051 151.372 96.8792 151.347 96.8429C151.322 96.8083 151.314 96.7633 151.322 96.7201L152.223 91.9833C152.232 91.9419 152.258 91.9038 152.292 91.8796C152.328 91.8537 152.373 91.845 152.417 91.8537L157.152 92.7561C157.195 92.763 157.233 92.7889 157.257 92.8252C157.281 92.8598 157.292 92.9048 157.283 92.948L156.381 97.6848C156.367 97.7626 156.298 97.8161 156.222 97.8179C156.211 97.8179 156.199 97.8179 156.189 97.8144Z" fill="#272532"/>
<path d="M144.727 90.7227L143.887 95.1362L148.301 95.9764L149.141 91.5646L144.727 90.7227ZM148.401 96.3308L143.664 95.4284C143.574 95.4111 143.516 95.3264 143.533 95.2365L144.435 90.4997C144.444 90.4565 144.468 90.4202 144.504 90.3943C144.541 90.37 144.586 90.3614 144.627 90.37L149.364 91.2707C149.454 91.288 149.513 91.3744 149.495 91.4643L148.593 96.2011C148.584 96.2426 148.56 96.2806 148.524 96.3048C148.498 96.3239 148.465 96.3342 148.434 96.3342C148.422 96.3342 148.411 96.3325 148.401 96.3308Z" fill="#272532"/>
<path d="M190.185 59.6177C190.261 59.6177 190.328 59.5624 190.344 59.4846C190.361 59.3964 190.302 59.31 190.212 59.2927L168.532 55.1627C168.442 55.1454 168.357 55.2042 168.34 55.2941C168.323 55.3822 168.382 55.4687 168.47 55.486L190.152 59.616C190.162 59.6177 190.174 59.6194 190.185 59.6177Z" fill="#EDB775"/>
<path d="M189.733 61.9861C189.809 61.9861 189.877 61.9308 189.892 61.853C189.91 61.7631 189.851 61.6784 189.761 61.6611L168.081 57.5311C167.991 57.5138 167.906 57.5726 167.889 57.6625C167.871 57.7506 167.93 57.8371 168.02 57.8544L189.7 61.9843C189.711 61.9861 189.723 61.9861 189.733 61.9861Z" fill="#EDB775"/>
<path d="M188.852 66.6155C188.928 66.6155 188.995 66.5602 189.011 66.4824C189.028 66.3942 188.969 66.3078 188.88 66.2905L167.199 62.1605C167.109 62.1432 167.025 62.202 167.007 62.2919C166.99 62.38 167.049 62.4665 167.137 62.4838L188.819 66.6138C188.829 66.6155 188.842 66.6172 188.852 66.6155Z" fill="#EDB775"/>
<path d="M188.401 68.9841C188.477 68.9841 188.544 68.9288 188.56 68.851C188.577 68.7611 188.518 68.6764 188.428 68.6591L166.748 64.5291C166.658 64.5119 166.574 64.5706 166.556 64.6605C166.539 64.7487 166.598 64.8351 166.688 64.8524L188.368 68.9824C188.378 68.9841 188.39 68.9841 188.401 68.9841Z" fill="#EDB775"/>
<path d="M187.192 75.3284C187.268 75.3284 187.336 75.273 187.351 75.1953C187.369 75.1054 187.31 75.0207 187.22 75.0034L165.54 70.8734C165.45 70.8561 165.365 70.9149 165.348 71.0048C165.33 71.0929 165.389 71.1794 165.477 71.1967L187.159 75.3266C187.17 75.3284 187.182 75.3284 187.192 75.3284Z" fill="#EDB775"/>
<path d="M186.741 77.697C186.817 77.697 186.885 77.6417 186.9 77.5639C186.917 77.474 186.859 77.3893 186.769 77.372L165.088 73.242C164.999 73.2247 164.914 73.2835 164.897 73.3734C164.879 73.4616 164.938 73.548 165.028 73.5653L186.708 77.6953C186.719 77.697 186.731 77.697 186.741 77.697Z" fill="#EDB775"/>
<path d="M185.859 82.3284C185.935 82.3266 186.003 82.2713 186.018 82.1935C186.036 82.1036 185.977 82.0189 185.887 82.0016L164.207 77.8717C164.117 77.8544 164.032 77.9132 164.015 78.0031C163.997 78.0912 164.056 78.1776 164.144 78.1949L185.826 82.3249C185.837 82.3267 185.847 82.3284 185.859 82.3284Z" fill="#EDB775"/>
<path d="M185.408 84.6951C185.484 84.6951 185.552 84.6397 185.567 84.562C185.584 84.4721 185.526 84.3874 185.436 84.3701L163.755 80.2401C163.666 80.2228 163.581 80.2816 163.564 80.3715C163.546 80.4596 163.605 80.5461 163.695 80.5634L185.375 84.6933C185.386 84.6951 185.398 84.6951 185.408 84.6951Z" fill="#EDB775"/>
<path d="M184.091 91.6133C184.167 91.6116 184.234 91.558 184.25 91.4802C184.267 91.3903 184.208 91.3038 184.119 91.2865L162.438 87.1583C162.348 87.141 162.264 87.1998 162.246 87.2879C162.229 87.3778 162.288 87.4643 162.376 87.4816L184.056 91.6098C184.068 91.6115 184.079 91.6133 184.091 91.6133Z" fill="#EDB775"/>
<path d="M183.639 93.9814C183.716 93.9797 183.783 93.9261 183.799 93.8466C183.816 93.7584 183.757 93.672 183.667 93.6547L161.987 89.5247C161.897 89.5092 161.812 89.5662 161.795 89.6561C161.778 89.746 161.837 89.8307 161.925 89.848L183.607 93.978C183.617 93.9797 183.627 93.9814 183.639 93.9814Z" fill="#EDB775"/>
<path d="M182.758 98.6113C182.834 98.6096 182.902 98.556 182.917 98.4782C182.934 98.3883 182.876 98.3019 182.786 98.2846L161.106 94.1563C161.016 94.139 160.929 94.1978 160.914 94.286C160.896 94.3759 160.955 94.4623 161.043 94.4779L182.724 98.6079C182.736 98.6096 182.746 98.6113 182.758 98.6113Z" fill="#EDB775"/>
<path d="M182.307 100.98C182.383 100.978 182.45 100.924 182.466 100.845C182.483 100.757 182.424 100.67 182.334 100.653L160.654 96.523C160.564 96.5075 160.48 96.5645 160.462 96.6544C160.445 96.7443 160.504 96.8307 160.592 96.8463L182.274 100.976C182.284 100.978 182.295 100.98 182.307 100.98Z" fill="#EDB775"/>
<path d="M161.555 55.3787C161.64 55.377 161.724 55.3528 161.795 55.3027L163.413 54.2032C163.614 54.0666 163.666 53.7935 163.529 53.5929C163.394 53.3941 163.121 53.3405 162.921 53.4771L161.849 54.2067L160.898 49.4941C160.85 49.2572 160.618 49.1034 160.381 49.1518C160.144 49.2002 159.99 49.4301 160.037 49.6687L161.119 55.0278C161.149 55.1713 161.247 55.2906 161.384 55.3459C161.439 55.3684 161.498 55.3805 161.555 55.3787Z" fill="#3D6E92"/>
<path d="M152.8 62.5996C152.885 62.5979 152.97 62.5719 153.041 62.5235L154.659 61.4241C154.859 61.2875 154.911 61.0143 154.775 60.8138C154.638 60.6133 154.367 60.5614 154.166 60.698L153.094 61.4275L152.143 56.7149C152.095 56.4781 151.863 56.3242 151.627 56.3726C151.388 56.4193 151.236 56.651 151.283 56.8895L152.365 62.2487C152.394 62.3921 152.493 62.5114 152.629 62.5668C152.685 62.5892 152.743 62.5996 152.8 62.5996Z" fill="#3D6E92"/>
<path d="M151.303 70.4636C151.388 70.4619 151.471 70.436 151.544 70.3876L153.162 69.2881C153.361 69.1515 153.414 68.8784 153.278 68.6778C153.141 68.4773 152.868 68.4254 152.667 68.562L151.596 69.2915L150.645 64.579C150.596 64.3421 150.366 64.1883 150.128 64.2367C149.891 64.2833 149.737 64.515 149.786 64.7536L150.868 70.111C150.895 70.2562 150.996 70.3755 151.13 70.4308C151.186 70.4533 151.245 70.4636 151.303 70.4636Z" fill="#3D6E92"/>
<path d="M157.456 80.5716C157.541 80.5716 157.624 80.5457 157.696 80.4955L159.315 79.396C159.515 79.2595 159.567 78.9881 159.43 78.7875C159.294 78.587 159.021 78.5351 158.82 78.6717L157.748 79.3995L156.798 74.6887C156.749 74.4501 156.519 74.298 156.281 74.3446C156.044 74.393 155.89 74.6247 155.938 74.8615L157.021 80.2207C157.048 80.3641 157.148 80.4834 157.283 80.5405C157.339 80.563 157.397 80.5733 157.456 80.5716Z" fill="#3D6E92"/>
<path d="M148.145 87.0445C148.23 87.0445 148.313 87.0185 148.385 86.9701L150.004 85.8689C150.204 85.7341 150.256 85.461 150.119 85.2604C149.983 85.0599 149.71 85.008 149.509 85.1446L148.437 85.8724L147.487 81.1615C147.44 80.923 147.208 80.7709 146.97 80.8175C146.733 80.8659 146.579 81.0976 146.627 81.3344L147.71 86.6935C147.737 86.837 147.837 86.958 147.972 87.0134C148.028 87.0358 148.086 87.0462 148.145 87.0445Z" fill="#3D6E92"/>
<path d="M153.635 96.9551C153.72 96.9551 153.805 96.9292 153.877 96.8791L155.494 95.7796C155.694 95.643 155.746 95.3716 155.611 95.1711C155.475 94.9705 155.202 94.9187 155.001 95.0552L153.929 95.783L152.978 91.0722C152.93 90.8336 152.7 90.6798 152.462 90.7282C152.225 90.7766 152.071 91.0082 152.119 91.2451L153.2 96.6042C153.229 96.7477 153.328 96.867 153.464 96.924C153.52 96.9465 153.578 96.9569 153.635 96.9551Z" fill="#3D6E92"/>
<path d="M168.544 102.095C168.171 100.82 167.796 99.5464 167.422 98.2723C167.701 98.5126 167.967 98.7684 168.219 99.0381C168.926 99.7988 169.519 100.648 170.048 101.538C169.537 101.69 169.033 101.877 168.544 102.095ZM166.653 97.6015C166.833 98.2152 167.759 101.368 168.043 102.333C167.92 102.395 167.797 102.459 167.678 102.525C167.369 102.696 167.652 103.165 167.962 102.995C168.039 102.952 168.121 102.911 168.2 102.869C168.496 103.877 168.793 104.886 169.089 105.896C169.189 106.233 169.715 106.081 169.616 105.742C169.436 105.13 168.826 103.051 168.7 102.624C168.897 102.532 169.097 102.447 169.3 102.368C169.639 102.238 169.981 102.124 170.328 102.027C170.864 102.985 171.338 103.981 171.803 104.964C171.867 105.099 172.062 105.129 172.18 105.058C172.315 104.976 172.335 104.816 172.271 104.681C171.983 104.071 171.692 103.459 171.385 102.857C171.22 102.53 171.047 102.207 170.871 101.887C172.059 101.614 173.288 101.529 174.508 101.64C174.657 101.654 174.78 101.498 174.778 101.363C174.776 101.204 174.648 101.106 174.5 101.092C173.985 101.045 173.468 101.031 172.951 101.052C172.154 101.087 171.362 101.201 170.588 101.391C169.666 99.8178 168.551 98.3587 167.052 97.2869C166.85 97.1434 166.591 97.3906 166.653 97.6015Z" fill="#C01A34"/>
<path d="M164.278 101.732C164.485 101.569 164.71 101.44 164.948 101.339C164.727 100.893 164.463 100.47 164.155 100.074C164.065 99.9564 164.132 99.768 164.248 99.6971C164.388 99.6124 164.533 99.6729 164.625 99.7904C164.957 100.219 165.244 100.684 165.479 101.172C165.833 101.094 166.202 101.078 166.566 101.123C166.713 101.141 166.796 101.327 166.762 101.457C166.722 101.616 166.575 101.671 166.428 101.654C166.186 101.625 165.941 101.635 165.7 101.68C165.83 102.007 165.941 102.34 166.025 102.679C166.11 103.021 165.585 103.175 165.498 102.833C165.413 102.494 165.303 102.162 165.173 101.841C164.955 101.932 164.748 102.053 164.561 102.2C164.444 102.292 164.253 102.225 164.184 102.109C164.1 101.969 164.16 101.823 164.278 101.732Z" fill="#C01A34"/>
<path d="M161.403 97.1591C162.526 95.9403 164.032 95.1001 165.638 94.7112C167.239 94.3239 168.959 94.362 170.522 94.9013C172.116 95.4511 173.504 96.5073 174.546 97.8246C175.573 99.1229 176.265 100.725 176.33 102.392C176.396 104.062 175.779 105.689 174.653 106.92C173.623 108.047 172.225 108.823 170.76 109.231C169.166 109.677 167.474 109.648 165.908 109.103C164.959 108.775 164.103 108.287 163.316 107.668C162.194 106.783 161.282 105.628 160.917 104.224C160.507 102.643 160.813 100.954 161.631 99.5534C161.719 99.4013 161.814 99.2543 161.914 99.1126C161.999 98.9915 162.149 98.931 162.288 99.0088C162.407 99.0762 162.476 99.2612 162.391 99.3822C161.69 100.378 161.271 101.574 161.28 102.803C161.285 103.645 161.494 104.482 161.895 105.224C162.213 105.811 162.632 106.323 163.119 106.78C163.308 106.956 163.505 107.122 163.707 107.281C163.79 107.347 163.975 107.488 163.985 107.495C164.022 107.523 163.93 107.456 163.963 107.478C163.989 107.497 164.013 107.516 164.039 107.533C164.399 107.793 164.782 108.017 165.18 108.213C166.535 108.875 168.119 109.144 169.6 108.923C170.992 108.714 172.351 108.152 173.459 107.283C174.65 106.349 175.485 105.021 175.722 103.521C175.966 101.982 175.533 100.4 174.747 99.0797C173.945 97.7313 172.766 96.5955 171.378 95.8642C169.996 95.1364 168.406 94.8858 166.86 95.05C165.334 95.2125 163.83 95.8003 162.628 96.7615C162.331 97 162.054 97.2611 161.797 97.5411C161.556 97.8022 161.164 97.4184 161.403 97.1591Z" fill="#C01A34"/>
<path d="M186.314 51.209C186.522 51.2055 186.705 51.0551 186.741 50.8442C186.781 50.6057 186.622 50.3792 186.383 50.3377L158.701 45.5871C158.464 45.5473 158.236 45.7064 158.196 45.9449C158.154 46.1835 158.315 46.4117 158.554 46.4515L186.235 51.2021C186.261 51.2072 186.288 51.209 186.314 51.209Z" fill="#DA5026"/>
<path d="M189.621 70.2373L189.861 70.2338C189.934 70.2355 190.005 70.2373 190.076 70.2407C190.216 70.2476 190.354 70.2563 190.492 70.2701C190.769 70.2978 191.042 70.3375 191.314 70.3946C191.856 70.5087 192.396 70.6798 192.913 70.927C193.172 71.0498 193.426 71.1898 193.67 71.3523C193.914 71.5148 194.151 71.6929 194.374 71.8917C194.818 72.2928 195.209 72.7664 195.525 73.2868L195.534 73.3006C195.942 73.9696 195.712 74.8738 195.022 75.3232C194.332 75.771 193.442 75.5929 193.034 74.9239C192.991 74.853 192.951 74.77 192.921 74.6923C192.797 74.3621 192.633 74.0491 192.418 73.7622C192.313 73.6187 192.19 73.4839 192.06 73.3525C191.931 73.2228 191.786 73.1018 191.632 72.9877C191.326 72.7595 190.975 72.5676 190.6 72.4103C190.413 72.3325 190.218 72.2651 190.021 72.2063C189.922 72.1786 189.822 72.1527 189.723 72.1285C189.675 72.1181 189.626 72.1078 189.578 72.0974L189.459 72.0749C189.457 72.0749 189.462 72.0732 189.462 72.0732C188.959 72.0594 188.586 71.6358 188.631 71.1276C188.674 70.621 189.118 70.2234 189.621 70.2373Z" fill="#F7906D"/>
<path d="M188.1 72.1925L188.596 72.2807C188.755 72.3118 188.914 72.3447 189.071 72.3792C189.386 72.4484 189.699 72.5227 190.01 72.6057C190.634 72.77 191.253 72.9636 191.868 73.2021C192.178 73.3214 192.486 73.4528 192.792 73.6015C193.098 73.7484 193.404 73.9144 193.706 74.1046C194.009 74.293 194.309 74.5125 194.6 74.7736C194.89 75.0346 195.174 75.3423 195.419 75.7278L195.447 75.7728C195.864 76.4315 195.649 77.3373 194.968 77.7937C194.287 78.2518 193.397 78.0893 192.978 77.4307C192.956 77.3961 192.935 77.358 192.918 77.3235C192.85 77.1921 192.738 77.04 192.594 76.8896C192.449 76.7392 192.276 76.587 192.078 76.4436C191.88 76.3001 191.666 76.1618 191.438 76.0321C191.21 75.9007 190.969 75.778 190.722 75.6622C190.226 75.4288 189.701 75.2248 189.161 75.0415C188.891 74.9516 188.618 74.8652 188.343 74.7857C188.207 74.7459 188.069 74.7079 187.932 74.6716L187.484 74.5592C186.848 74.4054 186.487 73.7536 186.679 73.1036C186.862 72.483 187.488 72.0888 188.1 72.1925Z" fill="#F7906D"/>
<path d="M188.783 75.1505L189.545 75.3337C189.794 75.3977 190.041 75.4651 190.288 75.536C190.783 75.6795 191.276 75.8368 191.77 76.02C192.266 76.205 192.761 76.4124 193.269 76.6925C193.523 76.8325 193.782 76.9916 194.049 77.2025C194.182 77.3079 194.318 77.4272 194.456 77.5742L194.507 77.6278L194.56 77.6917C194.595 77.7349 194.628 77.7782 194.662 77.8214C194.695 77.8611 194.731 77.9182 194.764 77.97C194.799 78.0219 194.832 78.0755 194.863 78.1291C195.219 78.8241 194.93 79.7109 194.216 80.1102C193.504 80.5096 192.636 80.271 192.278 79.5761C192.278 79.5778 192.28 79.5795 192.283 79.5795C192.283 79.5795 192.292 79.5812 192.287 79.5743C192.283 79.5709 192.282 79.564 192.28 79.5588L192.277 79.5501L192.266 79.5363C192.244 79.5017 192.204 79.4533 192.154 79.4014C192.052 79.2977 191.908 79.1819 191.748 79.0713C191.424 78.8465 191.039 78.6304 190.638 78.4334C190.235 78.2345 189.811 78.0496 189.381 77.8767C189.165 77.7903 188.947 77.7055 188.727 77.626L188.039 77.3857C187.445 77.1835 187.156 76.5265 187.393 75.918C187.612 75.3493 188.219 75.026 188.783 75.1505Z" fill="#F7906D"/>
<path d="M189.611 78.4868L190.145 78.5455C190.318 78.568 190.489 78.5922 190.662 78.6199C191.007 78.6752 191.353 78.7426 191.708 78.8325C192.064 78.9241 192.427 79.0296 192.821 79.2163C193.021 79.3096 193.229 79.4237 193.461 79.607L193.547 79.6779C193.576 79.7055 193.608 79.7349 193.637 79.7643C193.668 79.7937 193.697 79.8214 193.727 79.8559C193.76 79.8922 193.789 79.9285 193.82 79.9683C193.851 80.0081 193.877 80.0409 193.91 80.091C193.939 80.1395 193.971 80.1879 193.996 80.238C194.01 80.2639 194.024 80.2847 194.038 80.3158C194.05 80.3452 194.064 80.3746 194.076 80.4057C194.102 80.4662 194.124 80.5267 194.143 80.5889C194.356 81.2977 193.913 82.0739 193.191 82.3142C192.468 82.5528 191.723 82.169 191.526 81.455C191.533 81.4792 191.542 81.5034 191.552 81.5276C191.557 81.538 191.562 81.5501 191.569 81.5605C191.576 81.5726 191.578 81.576 191.583 81.5847C191.599 81.6141 191.626 81.6452 191.633 81.6538C191.638 81.6607 191.645 81.6659 191.654 81.6711C191.657 81.6746 191.657 81.6746 191.661 81.6763C191.663 81.6763 191.668 81.678 191.67 81.678C191.668 81.6746 191.666 81.6728 191.666 81.6711C191.656 81.6469 191.594 81.5916 191.512 81.538C191.343 81.4256 191.103 81.3115 190.847 81.2113C190.591 81.1093 190.314 81.0177 190.031 80.9347C189.889 80.8932 189.745 80.8534 189.602 80.8171L189.125 80.703C188.53 80.5664 188.188 79.9631 188.359 79.3563C188.518 78.7979 189.061 78.4297 189.611 78.4868Z" fill="#F7906D"/>
<path d="M188.907 70.4484C189.019 70.4069 190.237 69.9608 190.734 70.476C190.772 70.514 191.042 70.7924 190.956 71.0379C190.914 71.1571 190.804 71.2211 190.698 71.2799C190.492 71.3922 190.276 71.4026 189.851 71.4182C189.497 71.4303 189.301 71.4113 189.116 71.3075C189.082 71.2885 189.054 71.273 189.021 71.2453C188.771 71.0258 188.878 70.5642 188.907 70.4484Z" fill="#ECB1AF"/>
<path d="M187.227 72.2271C187.616 72.215 187.927 72.2651 188.138 72.3118C188.535 72.3982 188.841 72.4657 189.066 72.7336C189.115 72.7924 189.357 73.0794 189.268 73.3836C189.218 73.5513 189.089 73.6481 189.037 73.6844C188.954 73.7467 188.76 73.8573 188.164 73.7916C187.659 73.7363 187.405 73.7086 187.254 73.5565C186.983 73.2834 186.988 72.7492 187.227 72.2271Z" fill="#ECB1AF"/>
<path d="M188 75.1573C188.389 75.1452 188.7 75.1936 188.911 75.2402C189.308 75.3284 189.616 75.3958 189.839 75.6638C189.888 75.7208 190.13 76.0095 190.041 76.3121C189.991 76.4798 189.862 76.5766 189.81 76.6146C189.727 76.6751 189.533 76.7858 188.937 76.7201C188.432 76.6647 188.18 76.6371 188.027 76.4849C187.756 76.2135 187.761 75.6794 188 75.1573Z" fill="#ECB1AF"/>
<path d="M189.087 78.563C189.405 78.5544 189.661 78.5941 189.835 78.6321C190.162 78.7048 190.413 78.7601 190.598 78.9796C190.637 79.0263 190.836 79.2649 190.764 79.5138C190.722 79.6521 190.617 79.7299 190.574 79.761C190.504 79.8112 190.347 79.9028 189.856 79.8492C189.441 79.8042 189.234 79.78 189.109 79.6556C188.886 79.4326 188.89 78.9935 189.087 78.563Z" fill="#ECB1AF"/>
<path d="M194.602 74.9377C194.649 74.9377 194.693 74.9187 194.725 74.8807C194.785 74.8115 194.776 74.7078 194.707 74.6491C194.662 74.6093 193.597 73.7 192.844 73.4441C192.759 73.4165 192.666 73.4614 192.636 73.5478C192.607 73.6343 192.654 73.7276 192.738 73.757C193.431 73.9904 194.483 74.8893 194.493 74.898C194.526 74.9256 194.564 74.9377 194.602 74.9377Z" fill="#272532"/>
<path d="M194.05 77.3667C194.106 77.3667 194.157 77.339 194.188 77.2906C194.237 77.2129 194.213 77.1109 194.137 77.0624C194.035 76.9985 191.64 75.4962 190.722 75.4979C190.634 75.4997 190.558 75.5705 190.558 75.6622C190.558 75.7538 190.631 75.8264 190.722 75.8264C191.407 75.8264 193.293 76.919 193.96 77.3408C193.99 77.3598 194.021 77.3667 194.05 77.3667Z" fill="#272532"/>
<path d="M193.463 79.7715C193.523 79.7715 193.582 79.7369 193.61 79.6781C193.648 79.5951 193.613 79.4966 193.532 79.4586L191.264 78.385C191.182 78.347 191.084 78.3816 191.046 78.4628C191.006 78.5458 191.041 78.6426 191.124 78.6824L193.39 79.7559C193.414 79.7663 193.438 79.7715 193.463 79.7715Z" fill="#272532"/>
<path d="M65.6331 28.8217C64.9549 28.7854 63.1216 28.6816 61.1722 29.6549C60.609 29.9367 60.0676 30.2064 59.5403 30.7769C58.8497 31.5237 58.8708 32.0406 58.261 33.8679C57.9917 34.6735 57.194 36.9485 56.8671 39.0593C56.8407 39.2305 56.7871 39.6056 56.9817 39.7525C57.3529 40.0361 58.1642 39.1285 59.3811 38.9106C60.2204 38.7602 60.9693 38.9884 61.4762 39.208C62.958 39.4327 64.2024 39.5537 65.1504 39.6212C65.7768 39.6661 66.3177 39.692 66.8263 39.3584C67.4713 38.9366 67.6777 38.1915 67.7493 37.8371C68.2274 37.6003 68.7919 37.2234 68.8711 36.6736C68.9608 36.053 68.3739 35.6174 68.5901 35.225C68.7876 34.8654 69.3411 35.1108 69.8359 34.6406C70.0824 34.4072 70.3085 34.001 70.2637 33.593C70.2015 33.0243 69.668 32.943 69.6716 32.4607C69.6749 32.0216 70.1175 31.9317 70.1564 31.4165C70.1842 31.0448 69.98 30.7544 69.8291 30.5331C69.4545 29.9868 68.9246 29.7137 68.4295 29.5062C66.99 28.9029 65.7102 28.8251 65.6331 28.8217Z" fill="#F7906D"/>
<path d="M64.8813 33.9233C65.4447 34.0063 66.0024 34.1239 66.5486 34.2777C67.0951 34.4316 67.6317 34.6166 68.1521 34.8379C68.3407 34.9174 68.5274 35.0038 68.7117 35.0937C68.6631 35.1248 68.6221 35.1663 68.5903 35.2251C68.5709 35.2597 68.558 35.296 68.5505 35.3323C68.3727 35.2821 63.7144 33.9873 63.1719 33.8127C63.7472 33.7954 64.3174 33.8421 64.8813 33.9233Z" fill="#272532"/>
<path d="M64.6081 36.9123C65.1091 36.9624 65.6046 37.0454 66.0897 37.1595C66.5751 37.2736 67.0505 37.4188 67.5104 37.5952C67.6428 37.647 67.7738 37.7006 67.9037 37.7577C67.8518 37.7853 67.8001 37.8112 67.7495 37.8372C67.7431 37.8683 67.7353 37.9046 67.7265 37.9426C67.6181 37.9132 67.5099 37.8838 67.4016 37.8562C66.9288 37.73 66.4557 37.6124 65.9801 37.5001C65.5047 37.3894 63.5801 36.9936 63.092 36.8864C63.6006 36.8483 64.1072 36.8656 64.6081 36.9123Z" fill="#272532"/>
<path d="M66.2609 31.3782C65.7963 31.2347 65.3299 31.093 64.8623 30.9253C65.3543 30.9218 65.843 30.9754 66.3274 31.0584C66.8111 31.1431 67.2907 31.2606 67.7614 31.4076C68.232 31.5562 68.6948 31.7326 69.1446 31.94C69.3392 32.0299 69.5317 32.1267 69.7211 32.2305C69.693 32.2927 69.6748 32.3636 69.6722 32.4448C69.4596 32.3791 66.2609 31.3782 66.2609 31.3782Z" fill="#272532"/>
<path d="M60.124 37.0452C62.8863 37.8646 61.8857 52.3394 61.8857 52.3394C61.5645 62.2521 61.3165 67.7806 57.754 73.4941C56.8746 74.9048 52.7735 81.3046 48.9526 80.6443C46.6031 80.238 44.6192 77.0398 44.7359 73.9609C44.7765 72.8925 45.0474 72.1025 45.125 71.8933C46.5875 67.9379 55.4135 39.4032 57.5125 37.5603C57.9445 37.18 58.4407 37.0227 58.4407 37.0227C58.4407 37.0227 59.2131 36.7755 60.124 37.0452Z" fill="#F7906D"/>
<path d="M60.9004 39.3032C60.6921 39.1995 60.4846 39.1113 60.2782 39.0232L59.0422 38.5097C58.8347 38.4233 58.628 38.3334 58.4077 38.2591C58.569 38.4268 58.7533 38.5668 58.9469 38.6913C59.141 38.814 59.3461 38.9212 59.5584 39.0093C59.7705 39.0975 59.99 39.1701 60.2143 39.222C60.4386 39.2721 60.6675 39.3067 60.9004 39.3032Z" fill="#272532"/>
<path d="M61.5751 24.1473C61.5751 24.1473 63.2701 28.5068 61.5445 31.4301C60.5818 33.0601 59.9534 33.3332 59.5917 33.1852C59.3977 33.1059 59.3043 32.8134 59.2001 32.5103C58.9823 31.8724 59.0379 31.2944 59.0581 31.1112C59.2225 29.6222 59.8287 29.1658 60.0477 27.7808C60.2023 26.8046 59.9577 26.6742 60.1438 24.7235C60.2343 23.7755 60.3327 23.3826 60.557 23.298C60.955 23.15 61.5187 24.0557 61.5751 24.1473Z" fill="#F7906D"/>
<path d="M57.4863 73.4856C57.4598 73.4856 57.4332 73.477 57.4121 73.4579C57.3665 73.4182 57.3627 73.349 57.4036 73.3041C59.0017 71.5598 59.809 69.0859 59.817 69.0617C59.8353 69.0047 59.8977 68.9718 59.9561 68.9908C60.0146 69.0081 60.0471 69.0686 60.0286 69.1274C60.0205 69.1516 59.1986 71.6704 57.5689 73.4493C57.547 73.4735 57.5167 73.4856 57.4863 73.4856Z" fill="#272532"/>
<path d="M113.016 15.5788C111.348 14.3656 110.204 13.0281 108.416 13.179C108.013 13.2115 106.483 13.8306 103.436 15.0687C103.083 15.212 102.659 15.4374 102.032 15.6075C100.833 15.9304 100.187 15.7431 99.1926 16.4501C97.5229 17.6385 98.3233 19.3352 96.6541 23.0114C95.7362 25.0329 95.518 24.5762 94.6842 26.4277C94.4014 27.0563 93.4247 29.3319 93.0802 34.5844C92.8045 38.7879 93.3695 38.2491 93.0032 39.6917C91.6223 45.1314 84.1594 50.445 83.6299 52.3213C83.0535 54.3619 83.6905 53.5441 82.8529 59.2857C81.7172 67.0698 80.1905 69.2805 79.6584 75.7959C79.3651 79.388 79.8149 79.1874 79.5818 82.5082C78.7455 94.4251 72.0015 104.334 71.0823 103.965C70.7187 103.82 71.5579 102.182 71.9801 98.2331C72.6974 91.5189 71.1801 85.8136 70.4701 81.849C69.4955 76.4073 68.0088 76.0061 68.2589 72.0663C68.5161 68.0156 70.1617 67.2628 71.4883 62.7001C73.7045 55.0746 70.1168 53.7142 72.1582 47.4681C74.105 41.5087 77.7842 41.4743 79.4075 34.7182C80.236 31.2713 79.2526 31.3859 80.2071 27.2779C80.7994 24.7291 82.1106 19.3926 86.4742 15.5788C88.7527 13.586 89.1138 14.4133 91.7179 12.3574C96.7237 8.40612 96.0616 4.82169 99.4666 2.17157C103.629 -1.06704 110.342 -0.24736 114.619 1.79898C122.842 5.73499 126.516 16.324 124.342 18.5347C122.842 20.0575 116.859 18.3761 113.016 15.5788Z" fill="#1F1A1B"/>
<path d="M116.885 20.5965C116.343 22.0583 116.323 23.6555 116.347 25.2129C116.352 25.5342 116.233 26.9761 116.033 29.8636C115.906 31.6882 115.78 33.159 115.697 34.083C116.042 33.4261 116.623 32.5093 117.592 31.6828C118.377 31.0132 118.788 30.9392 119.536 30.3491C120.996 29.2049 121.685 27.7557 121.874 27.2667C122.497 25.6497 122.737 23.8594 122.376 22.163C121.672 18.8424 118.507 16.2093 116.885 20.5965Z" fill="#1F1A1B"/>
<path d="M102.102 1.00436C100.152 3.90257 97.7803 6.52557 95.1142 8.81453C93.7809 9.95901 92.3502 10.9934 90.8529 11.931C89.3554 12.8705 87.7334 13.6145 86.1436 14.3206C85.3508 14.6736 84.5801 15.038 83.9055 15.4992C83.2314 15.9604 82.6726 16.5431 82.2173 17.2245C81.3004 18.5967 80.8302 20.229 80.6795 21.9011C80.5281 23.5808 80.6501 25.3004 80.7236 27.056C80.7602 27.9347 80.7843 28.8306 80.7063 29.7416C80.6287 30.6489 80.443 31.5903 80.0056 32.469C79.5688 33.3459 78.8442 34.0804 78.0364 34.5815C77.6302 34.8339 77.2389 35.0218 76.8811 35.2306C76.5232 35.4394 76.1842 35.6633 75.857 35.9176C74.54 36.9388 73.4217 38.237 72.5439 39.6718C72.1056 40.3874 71.7323 41.1523 71.4047 41.9285C71.2411 42.3157 71.1126 42.7143 70.9771 43.111C70.871 43.5171 70.7468 43.9195 70.6781 44.3352C70.5878 44.7451 70.5411 45.1646 70.4847 45.5822C70.4508 46.0054 70.4153 46.4268 70.4033 46.8538C70.3794 47.7041 70.3933 48.5639 70.4375 49.4294C70.5259 51.1603 70.6673 52.9235 70.5703 54.7C70.4735 56.4727 70.1524 58.2284 69.6384 59.9176C69.1239 61.6087 68.4034 63.2219 67.5776 64.7688C67.3709 65.156 67.1439 65.5299 66.9285 65.9114L66.2329 67.0255L65.4868 68.1035L64.7048 69.155L65.4152 68.0561L66.0864 66.9344L66.7212 65.7956C66.9164 65.4065 67.1229 65.0231 67.3085 64.6322C68.05 63.0625 68.671 61.4378 69.1002 59.7657C69.5289 58.0955 69.7975 56.3873 69.8231 54.6716C69.8362 53.8137 69.807 52.9539 69.751 52.0903L69.549 49.4844C69.4202 47.7382 69.3894 45.9371 69.6963 44.1473C69.7728 43.7031 69.8893 43.2647 69.9985 42.8244C70.1368 42.3936 70.2705 41.9608 70.4399 41.5413C70.7772 40.7043 71.1585 39.8901 71.6197 39.1119C72.5404 37.5575 73.739 36.1644 75.1735 35.037C75.5337 34.7542 75.9213 34.4942 76.3165 34.2607C76.7122 34.0292 77.1072 33.8356 77.4404 33.623C78.1042 33.2016 78.6417 32.6436 78.9888 31.9528C79.3354 31.2657 79.5096 30.4667 79.5838 29.6448C79.6586 28.8173 79.6412 27.9613 79.611 27.0977C79.5502 25.3706 79.4183 23.5941 79.6077 21.7948C79.7962 20.005 80.3402 18.1886 81.3936 16.6627C81.9182 15.9035 82.5942 15.2126 83.375 14.7078C84.1564 14.2029 84.984 13.8442 85.7914 13.5082C86.5991 13.1704 87.3988 12.8439 88.18 12.4795C88.9604 12.1151 89.7259 11.7203 90.4737 11.2914C91.9687 10.4354 93.3971 9.45225 94.7625 8.38369C96.1281 7.31702 97.4324 6.16685 98.6551 4.92937C99.2666 4.31063 99.8556 3.67101 100.431 3.01621C101.006 2.36141 101.565 1.69332 102.102 1.00436Z" fill="#1F1A1B"/>
<path d="M130.093 268.2L116.86 267.79C116.562 267.782 117.413 267.517 117.52 267.244L119.27 258.97C119.394 258.647 120.314 258.367 120.511 258.654C120.513 258.656 120.514 258.659 120.516 258.662C123.256 262.635 123.446 263.155 123.986 263.318C125.45 263.761 127.614 260.995 128.811 259.259C129.035 258.93 129.556 259.057 129.601 259.451C129.914 262.21 130.225 264.969 130.538 267.728C130.567 267.986 130.358 268.209 130.093 268.2Z" fill="#6D72C0"/>
<path d="M121.545 256.164C121.894 255.789 122.852 254.902 124.798 254.691C126.503 254.674 127.345 255.22 127.775 255.647C130.621 258.467 126.892 267.298 124.262 267.284C122.981 267.277 122.05 265.175 121.476 263.883C121.164 263.183 119.178 258.711 121.545 256.164Z" fill="#3C498A"/>
<path d="M132.728 271.536C132.6 267.434 128.515 264.141 123.489 264.141C118.464 264.141 114.379 267.434 114.251 271.536H132.728Z" fill="#6D72C0"/>
<path d="M130.235 274.721H116.638C116.443 274.64 114.614 273.834 114.251 271.915C114.114 271.199 114.099 269.893 114.82 269.279C114.975 269.146 115.274 268.95 117.112 269.001C118.533 269.04 118.452 269.165 119.112 269.132C120.513 269.064 121.695 268.67 122.597 268.24C123.337 267.887 124.191 267.982 124.866 268.47C125.528 268.949 126.473 269.433 127.658 269.512C127.993 269.535 128.065 269.498 128.65 269.4C128.705 269.391 129.015 269.343 129.633 269.255C131.156 269.04 131.919 268.933 132.234 269.163C132.903 269.652 132.858 271.001 132.728 271.697C132.36 273.687 130.505 274.595 130.235 274.721Z" fill="white"/>
<path d="M113.892 266.067C111.826 266.067 109.654 265.595 107.668 264.295C103.73 261.719 101.701 256.564 102.501 251.16C102.515 251.066 102.601 251.004 102.694 251.016C102.788 251.03 102.852 251.116 102.838 251.21C102.058 256.482 104.027 261.506 107.855 264.009C112.797 267.242 118.94 265.199 121.496 263.667C122.527 263.05 122.879 262.581 122.865 262.417C122.84 262.118 121.323 262.008 120.106 261.919C117.207 261.708 113.236 261.421 112.607 258.944C112.075 256.844 113.402 254.079 115.192 253.566C117.709 252.845 121.216 256.206 123.353 261.382C123.388 261.47 123.346 261.568 123.26 261.605C123.173 261.641 123.073 261.6 123.037 261.513C120.679 255.798 117.283 253.322 115.287 253.895C113.682 254.354 112.453 256.953 112.939 258.859C113.508 261.098 117.335 261.377 120.132 261.579C122.017 261.715 123.154 261.798 123.206 262.388C123.253 262.927 122.266 263.605 121.671 263.961C120.075 264.917 117.112 266.067 113.892 266.067Z" fill="white"/>
<path d="M131.558 265.623C128.759 265.623 126.202 264.819 124.726 264.082C124.107 263.773 123.07 263.175 123.075 262.632C123.082 262.041 124.209 261.869 126.076 261.588C128.849 261.169 132.645 260.597 133.037 258.32C133.373 256.382 131.947 253.886 130.313 253.552C128.28 253.136 125.084 255.867 123.175 261.747C123.146 261.837 123.05 261.887 122.961 261.857C122.871 261.828 122.821 261.731 122.85 261.641C124.579 256.315 127.817 252.692 130.382 253.217C132.206 253.59 133.745 256.244 133.375 258.379C132.939 260.898 129.003 261.493 126.128 261.926C124.921 262.108 123.419 262.334 123.417 262.635C123.414 262.801 123.803 263.24 124.878 263.776C127.545 265.106 133.828 266.668 138.506 263.061C142.127 260.269 143.702 255.108 142.516 249.912C142.495 249.82 142.553 249.728 142.644 249.708C142.738 249.685 142.827 249.744 142.848 249.836C144.063 255.162 142.44 260.459 138.715 263.332C136.5 265.038 133.942 265.623 131.558 265.623Z" fill="white"/>
<path d="M131.466 273.888C129.167 272.42 126.223 271.537 123.012 271.537C120.037 271.537 117.292 272.296 115.074 273.577C115.724 274.32 116.514 274.669 116.638 274.721H130.235C130.372 274.657 130.914 274.392 131.466 273.888Z" fill="#A6D2CA"/>
<path d="M124.349 263.538C122.846 263.538 121.339 263.387 119.866 263.086C119.774 263.069 119.714 262.977 119.733 262.886C119.752 262.794 119.842 262.734 119.934 262.753C121.384 263.047 122.869 263.197 124.349 263.197C124.366 263.197 124.383 263.197 124.401 263.197C125.861 263.194 127.329 263.043 128.762 262.753C128.856 262.734 128.945 262.794 128.963 262.886C128.982 262.977 128.923 263.069 128.83 263.088C127.376 263.382 125.886 263.534 124.401 263.538C124.383 263.538 124.366 263.538 124.349 263.538Z" fill="white"/>
<path d="M67.462 213.278L67.179 221.117C65.4221 220.927 62.7759 220.808 59.7101 221.37C55.969 222.054 55.3734 223.066 50.8776 224.409C47.4381 225.436 42.1509 227.014 38.5812 225.031C37.429 224.392 36.9399 223.835 36.8231 223.622C36.3501 222.755 36.4654 221.766 36.6113 221.28C37.2144 219.271 40.3181 219.307 46.9658 216.987C50.3199 215.817 51.997 215.233 53.5363 214.202C55.5515 212.854 57.5067 211.832 57.5067 211.832C57.5067 211.832 60.4879 213.35 62.7275 212.866C63.8659 212.621 64.4474 212.615 65.5079 212.201C66.4436 211.834 67.4925 212.43 67.462 213.278Z" fill="#6D72C0"/>
<path d="M36.5231 222.716C35.5998 223.928 35.6349 224.732 35.7265 225.138C36.2744 227.56 41.6281 228.117 42.6412 228.186C44.8096 228.333 46.4539 228.155 46.7241 228.117C56.5797 226.72 66.4167 228.933 67.7616 225.852C67.8773 225.588 68.1107 224.87 68.1537 223.984C68.2246 222.53 67.8617 221.192 67.4676 220.858C65.5639 219.245 60.7044 219.848 55.3957 222.521C55.3957 222.521 52.9165 223.318 50.0506 224.013C46.6156 224.845 44.7302 225.187 42.3846 224.889C41.0827 224.724 38.9572 224.255 36.5231 222.716Z" fill="white"/>
<path d="M46.9657 216.987C49.5997 215.731 51.9679 214.024 52.1841 211.792C52.417 209.393 50.0465 207.541 50.7866 206.336C51.2133 205.642 52.5325 205.391 55.2931 205.935C55.2931 205.935 57.4898 206.414 58.1839 208.164C59.4665 211.398 54.6789 215.661 54.3335 215.959C49.4432 220.173 42.3344 220.004 42.1602 219.311C42.0986 219.067 42.8378 218.497 46.9657 216.987Z" fill="#3C498A"/>
<path d="M47.3811 220.69C47.3673 220.69 47.3535 220.689 47.3395 220.685C45.3526 220.187 44.0856 219.269 44.0332 218.291C44.0249 218.135 44.0465 217.978 44.0977 217.821C44.1269 217.731 44.2229 217.681 44.3128 217.71C44.4025 217.739 44.4516 217.836 44.4225 217.924C44.3843 218.042 44.3681 218.16 44.3741 218.274C44.4177 219.084 45.6142 219.9 47.4224 220.353C47.5139 220.378 47.5696 220.469 47.5466 220.561C47.527 220.639 47.4575 220.69 47.3811 220.69Z" fill="white"/>
<path d="M52.6755 218.419C52.5251 218.419 48.9796 218.388 47.9832 217.217C47.761 216.956 47.6746 216.657 47.7261 216.329C47.7406 216.236 47.8279 216.173 47.9211 216.187C48.0143 216.201 48.0781 216.289 48.0634 216.382C48.0274 216.611 48.0864 216.811 48.2432 216.996C49.1383 218.047 52.6416 218.078 52.6769 218.078C52.7711 218.078 52.8472 218.154 52.8468 218.25C52.8463 218.343 52.7696 218.419 52.6755 218.419Z" fill="white"/>
<path d="M53.6455 215.76C52.5742 215.76 51.3368 215.63 50.7395 215.098C50.4833 214.87 50.3562 214.586 50.3617 214.254C50.3633 214.161 50.4425 214.088 50.5355 214.087C50.6297 214.088 50.7049 214.166 50.7032 214.259C50.6994 214.491 50.7853 214.681 50.9663 214.844C51.9982 215.762 55.4719 215.305 55.507 215.3C55.6002 215.288 55.6863 215.354 55.6989 215.447C55.7115 215.54 55.646 215.627 55.5527 215.639C55.4809 215.649 54.634 215.76 53.6455 215.76Z" fill="white"/>
<path d="M38.3383 221.223C34.7144 221.223 31.4807 220.179 28.7102 218.108C22.6169 213.554 19.4792 204.438 20.7162 194.882C20.7284 194.789 20.8144 194.725 20.9075 194.735C21.0011 194.747 21.0669 194.832 21.0548 194.925C19.8335 204.361 22.9186 213.354 28.9146 217.835C31.9368 220.092 35.5252 221.105 39.5815 220.841C43.7763 220.569 47.1434 219.02 48.7772 218.122C51.2049 216.785 52.4672 215.449 52.4225 214.871C52.3725 214.225 50.2674 214.05 48.0387 213.867C43.5526 213.495 37.4086 212.985 36.4486 208.669C35.6323 204.997 37.6643 200.167 40.4016 199.27C44.279 198.002 49.6954 203.948 53.0011 213.101C53.0331 213.189 52.9871 213.288 52.8984 213.319C52.8095 213.352 52.7119 213.305 52.6799 213.217C48.9868 202.99 43.652 198.566 40.5079 199.595C37.9136 200.443 35.9985 205.069 36.782 208.594C37.6873 212.667 43.6864 213.163 48.0669 213.527C50.7511 213.748 52.6906 213.909 52.7629 214.844C52.8282 215.689 51.2927 217.127 48.9416 218.421C47.2832 219.333 43.8645 220.907 39.6036 221.181C39.177 221.209 38.755 221.223 38.3383 221.223Z" fill="white"/>
<path d="M66.5387 224.106C66.5387 225.211 64.8868 226.105 62.8492 226.105C60.8115 226.105 59.1597 225.211 59.1597 224.106C59.1597 223.003 60.8115 222.108 62.8492 222.108C64.8868 222.108 66.5387 223.003 66.5387 224.106Z" fill="#A6D2CA"/>
<path d="M57.0921 224.881C57.0921 225.49 56.1829 225.98 55.0617 225.98C53.9402 225.98 53.0312 225.49 53.0312 224.881C53.0312 224.274 53.9402 223.781 55.0617 223.781C56.1829 223.781 57.0921 224.274 57.0921 224.881Z" fill="#A6D2CA"/>
</svg>
