<svg width="229" height="295" viewBox="0 0 229 295" fill="none" xmlns="http://www.w3.org/2000/svg">
<path d="M2.7128 121.533C12.9982 69.9116 24.1532 31.5142 51.9891 15.561C69.4985 5.52536 91.9177 14.2567 136.757 31.7174C149.886 36.8319 162.098 42.6991 175.493 51.8149C192.806 63.5976 208.077 79.426 213.54 86.209C247.715 128.62 217.02 212.511 198.633 262.761C195.771 270.585 192.247 277.746 185.411 280.495C179.182 283 174.549 281.586 162.671 282.96C157.201 283.593 153.749 285.957 151.829 286.751C140.829 291.298 128.65 292.135 104.738 293.626C74.0977 295.533 81.2166 294.506 64.0554 294.714C32.7833 295.092 28.1521 292.087 24.8113 289.025C11.8361 277.133 8.25615 258.297 7.25641 251.489C-5.65728 163.54 2.7128 121.533 2.7128 121.533Z" fill="#FAB217"/>
<path d="M87.7328 239.507C85.1701 250.875 82.6076 262.245 80.0449 273.614C76.6907 273.269 73.3368 272.926 69.9827 272.58L72.8099 236.923L87.7328 239.507Z" fill="#F7906D"/>
<path d="M160.521 196.973L157.844 231.852L148.111 232.399L143.608 197.906L160.521 196.973Z" fill="#F7906D"/>
<path d="M71.677 251.211C76.402 250.307 83.1755 247.617 86.1871 246.364C86.3922 245.455 86.5971 244.545 86.8022 243.634C83.3403 241.65 75.8245 239.156 75.8245 239.156C75.8245 239.156 74.2134 240.624 72.3641 242.546L71.677 251.211Z" fill="#DA5026"/>
<path d="M145.807 214.746C152.144 212.278 157.791 208.197 159.776 206.682L159.93 204.681C157.601 201.359 149.658 199.289 149.658 199.289L144.623 205.674L145.807 214.746Z" fill="#DA5026"/>
<path d="M92.9641 44.812C95.3852 44.127 98.7011 43.4747 102.653 43.5188C108.665 43.5879 113.39 45.2379 116.22 46.4908C115.974 51.6595 115.729 56.8264 115.485 61.9951C107.978 56.2661 100.471 50.539 92.9641 44.812Z" fill="#F7906D"/>
<path d="M111.651 35.2685C111.651 35.2685 110.168 44.5258 111.015 46.8857C111.038 46.9509 111.099 47.1159 111.023 47.2637C110.506 48.2613 104.675 46.2967 98.696 43.9828C100.189 37.8701 101.682 31.7593 103.175 25.6485C103.175 25.6485 112.922 32.0011 111.651 35.2685Z" fill="#F7906D"/>
<path d="M96.479 31.7423C98.0152 34.5984 101.185 35.3586 101.031 35.6133C100.827 35.9482 95.8049 33.8062 91.2683 29.865C88.4238 27.396 86.8495 25.1577 85.8449 22.9674C85.1776 21.5113 84.109 19.0985 85.1217 17.149C85.4895 16.441 85.9341 16.2003 86.591 15.5986C87.7016 14.5817 89.0446 12.8929 89.9584 9.9646C95.6188 8.20361 101.297 6.6793 101.685 7.59188C101.761 7.76838 101.612 7.985 101.558 8.06723C100.163 10.1812 92.865 25.0253 96.479 31.7423Z" fill="#272532"/>
<path d="M112.554 40.6225C113.398 40.5111 114.06 40.163 114.06 40.163C114.253 40.0595 114.438 39.9382 114.622 39.7949C114.622 39.7949 114.911 39.5701 115.168 39.2936C118.388 35.8222 117.056 28.2804 117.056 28.2804C116.653 25.9986 116.17 25.1909 115.053 22.002C114.154 19.4317 112.947 15.6121 111.889 10.7222C111.63 10.6685 108.98 10.1731 106.282 9.70166C105.148 9.638 98.0988 9.3376 94.3237 14.1121C89.5472 20.1518 93.794 29.5357 97.6824 34.0636C98.1111 34.5629 98.5539 35.0244 99.0065 35.4521C99.9901 36.61 101.916 38.5456 104.939 39.7571C104.939 39.7571 108.434 41.1577 112.554 40.6225Z" fill="#F7906D"/>
<path d="M102.105 37.4594C103.415 38.2383 105.086 39.0787 107.104 39.7579C108.476 40.2203 109.752 40.5215 110.879 40.721C110.469 42.0334 109.856 42.4536 109.501 42.6147C107.786 43.3937 104.704 41.4597 102.105 37.4594Z" fill="#272532"/>
<path d="M111.728 23.0296C111.906 23.8662 111.619 24.6355 111.087 24.7487C110.555 24.8619 109.979 24.2748 109.801 23.4402C109.623 22.6037 109.91 21.8343 110.442 21.7211C110.974 21.606 111.55 22.1931 111.728 23.0296Z" fill="#29282A"/>
<path d="M101.376 26.295C101.72 27.1258 102.46 27.6093 103.029 27.3733C103.599 27.1392 103.782 26.2739 103.439 25.4412C103.095 24.6105 102.355 24.127 101.786 24.363C101.216 24.5971 101.033 25.4624 101.376 26.295Z" fill="#29282A"/>
<path d="M108.603 22.1835C108.969 22.9222 109.342 23.611 109.781 24.2499C110.219 24.8849 110.706 25.4739 111.246 26.0073C111.381 26.1416 111.521 26.2702 111.663 26.3968C111.803 26.5215 111.952 26.6405 112.117 26.794C112.279 26.9436 112.455 27.122 112.583 27.3638C112.646 27.4847 112.697 27.617 112.722 27.759C112.747 27.8991 112.748 28.0391 112.729 28.1715C112.652 28.7049 112.306 29.104 111.92 29.3304C111.532 29.5606 111.124 29.6508 110.717 29.7122C111.051 29.4685 111.395 29.2498 111.643 28.9812C111.768 28.845 111.862 28.7068 111.927 28.5571C111.991 28.4075 112.023 28.2521 112.016 28.1178C112.008 27.9816 111.969 27.876 111.892 27.7724C111.816 27.6669 111.7 27.5595 111.557 27.4482C111.416 27.3407 111.248 27.2141 111.081 27.0798C110.998 27.0146 110.92 26.9436 110.841 26.8726C110.763 26.8016 110.684 26.7306 110.609 26.6558C110.01 26.0572 109.511 25.3588 109.16 24.5971C108.809 23.8374 108.602 23.0104 108.603 22.1835Z" fill="#272532"/>
<path d="M111.945 32.8547C112.015 32.7108 111.989 32.6437 111.973 32.6168C111.886 32.4653 111.562 32.5574 110.96 32.5228C110.619 32.5036 110.351 32.4518 110.053 32.3943C110.003 32.3847 109.659 32.3175 109.329 32.2235C108.314 31.9357 107.873 31.5156 107.801 31.5961C107.664 31.7477 108.814 33.7584 110.329 33.7527C111.085 33.7508 111.757 33.2461 111.945 32.8547Z" fill="white"/>
<path d="M99.7107 20.824L104.499 19.4051C104.499 19.4051 103.67 15.9144 99.7107 20.824Z" fill="#272532"/>
<path d="M113.349 18.1153L108.466 19.1665C108.466 19.1665 107.522 15.7047 113.349 18.1153Z" fill="#272532"/>
<path d="M94.5363 21.9932C93.8566 20.5562 94.0271 18.8589 94.9881 17.592C94.9984 17.5797 95.0086 17.5674 95.0187 17.5531C95.2282 17.2784 97.4511 14.3573 99.8352 12.9838C103.406 10.9298 107.486 13.771 112.185 12.0491C114.087 11.3521 116.625 9.66296 118.802 5.06297C115.552 7.32402 113.966 7.26048 113.118 6.78695C111.482 5.87065 111.845 3.00692 110.362 2.52929C109.291 2.18491 107.973 3.31441 107.089 4.23482C107.036 2.41245 106 0.817616 104.505 0.239542C102.51 -0.529173 99.904 0.592127 98.9314 3.03767C98.3473 1.94097 97.742 1.60477 97.2947 1.50228C95.2797 1.04515 92.3981 4.43571 89.9585 9.96431C90.0944 10.6695 90.2479 11.5612 90.3812 12.6087C90.3812 12.6087 90.6073 14.3778 90.6842 16.1837C90.9318 21.9952 89.3238 26.4907 91.2844 28.2761C91.9293 28.8624 93.1699 29.3482 95.8077 28.6882C96.4458 28.7005 97.0842 28.7148 97.7223 28.7271L94.5363 21.9932Z" fill="#272532"/>
<path d="M86.0199 12.315C86.2799 12.3741 86.5099 12.4353 86.7508 12.5023C86.9889 12.5693 87.2248 12.6383 87.4596 12.7132C87.9285 12.861 88.3927 13.0226 88.8482 13.2079C89.3032 13.3912 89.7524 13.5883 90.1815 13.8288C90.6083 14.0654 91.0237 14.3315 91.3722 14.6626C90.9463 14.4418 90.4931 14.3078 90.0382 14.2014C89.5831 14.0949 89.1177 14.0338 88.6541 13.9845C88.1901 13.9353 87.7231 13.9096 87.2575 13.8978C87.0248 13.8919 86.7918 13.8899 86.56 13.8919C86.3311 13.8939 86.0903 13.8978 85.8782 13.9096L86.0199 12.315Z" fill="#272532"/>
<path d="M87.4663 8.38667C87.6421 8.88149 87.841 9.39425 88.0449 9.89306C88.2498 10.3939 88.4651 10.8907 88.6968 11.3775C88.9284 11.8663 89.1736 12.3472 89.4575 12.8021C89.5994 13.0295 89.7506 13.253 89.925 13.4545C90.012 13.5543 90.1052 13.65 90.2105 13.7298C90.3147 13.8096 90.434 13.8775 90.5725 13.8855C90.4358 13.9114 90.2895 13.8715 90.1602 13.8156C90.0296 13.7598 89.9074 13.684 89.7913 13.6022C89.5593 13.4405 89.3486 13.251 89.1469 13.0555C88.7428 12.6644 88.3757 12.2394 88.0212 11.8085C87.6668 11.3755 87.3276 10.9326 86.998 10.4816C86.667 10.0287 86.3494 9.5798 86.033 9.10096L87.4663 8.38667Z" fill="#272532"/>
<path d="M93.5254 19.8545C94.1469 18.7082 94.9104 17.6282 95.8174 16.6666C96.2709 16.1868 96.7645 15.7431 97.2828 15.3276C97.8016 14.91 98.3623 14.5446 98.9479 14.2234C99.0942 14.1431 99.2394 14.0608 99.3899 13.9866L99.8426 13.7697C100.15 13.6252 100.477 13.5108 100.797 13.4124C101.442 13.2157 102.086 13.0772 102.728 12.9407C103.369 12.8062 104.01 12.6917 104.651 12.5753C105.292 12.4588 105.935 12.3404 106.581 12.238C107.871 12.0333 109.169 11.8586 110.463 11.7141C111.11 11.6418 111.756 11.5755 112.385 11.4812C113.015 11.3868 113.62 11.2483 114.212 11.0456C114.36 10.9954 114.505 10.9372 114.652 10.8769C114.798 10.8187 114.942 10.7545 115.086 10.6882C115.372 10.5557 115.652 10.4072 115.928 10.2506C116.481 9.93943 117.003 9.57004 117.502 9.16854C118.501 8.36554 119.378 7.40596 120.186 6.38213C119.537 7.51436 118.741 8.57433 117.78 9.48774C117.3 9.94345 116.78 10.361 116.226 10.7324C115.669 11.1038 115.078 11.419 114.452 11.6739C114.374 11.706 114.296 11.7402 114.217 11.7703L113.977 11.8546C113.818 11.9148 113.655 11.957 113.492 12.0072C113.33 12.0553 113.165 12.0875 113.002 12.1296L112.51 12.226C111.856 12.3444 111.209 12.4348 110.565 12.5231C109.277 12.7018 107.997 12.8824 106.718 13.0892C105.441 13.296 104.155 13.5128 102.882 13.7396C102.246 13.8541 101.613 13.9725 101.008 14.1371C100.703 14.2194 100.413 14.3138 100.125 14.4342L99.6876 14.6169C99.5421 14.6771 99.4014 14.7494 99.2584 14.8177C98.1158 15.3637 97.0682 16.1125 96.1119 16.9677C95.1539 17.8249 94.3067 18.8106 93.5254 19.8545Z" fill="#272532"/>
<path d="M104.691 21.1041C102.454 21.1041 100.633 22.9238 100.633 25.1619C100.633 27.398 102.454 29.2196 104.691 29.2196C106.929 29.2196 108.749 27.398 108.749 25.1619C108.749 22.9238 106.929 21.1041 104.691 21.1041ZM104.691 29.5881C102.25 29.5881 100.263 27.6034 100.263 25.1619C100.263 22.7203 102.25 20.7337 104.691 20.7337C107.132 20.7337 109.119 22.7203 109.119 25.1619C109.119 27.6034 107.132 29.5881 104.691 29.5881Z" fill="white"/>
<path d="M113.348 19.5153C111.378 19.5153 109.776 21.1165 109.776 23.0862C109.776 25.0559 111.378 26.6572 113.348 26.6572C115.317 26.6572 116.92 25.0559 116.92 23.0862C116.92 21.1165 115.317 19.5153 113.348 19.5153ZM113.348 27.0276C111.175 27.0276 109.407 25.2585 109.407 23.0862C109.407 20.912 111.175 19.1449 113.348 19.1449C115.521 19.1449 117.29 20.912 117.29 23.0862C117.29 25.2585 115.521 27.0276 113.348 27.0276Z" fill="white"/>
<path d="M91.7243 31.3141C91.7771 33.133 93.2949 34.5662 95.1145 34.5125C96.9343 34.4607 98.3667 32.943 98.3142 31.1223C98.2614 29.3034 96.7436 27.8702 94.924 27.9239C93.1042 27.9757 91.6717 29.4933 91.7243 31.3141Z" fill="#F7906D"/>
<path d="M96.5969 32.5422C96.6527 32.5403 96.7057 32.5077 96.7304 32.454C97.2385 31.3431 96.9334 30.048 96.005 29.3727C95.2896 28.8547 94.2834 28.7952 93.4416 29.223C93.3669 29.2595 93.3372 29.3516 93.3752 29.4264C93.413 29.5012 93.5043 29.53 93.5791 29.4936C94.3203 29.1156 95.2026 29.1655 95.8266 29.6183C96.6387 30.2092 96.9029 31.3469 96.4547 32.3273C96.4198 32.4041 96.4534 32.4943 96.5296 32.5288C96.5514 32.5384 96.5745 32.5422 96.5969 32.5422Z" fill="#272532"/>
<path d="M93.4441 30.401C93.4813 30.401 93.5185 30.3856 93.5469 30.3568C94.0682 29.8331 94.8186 29.528 95.5592 29.5395C95.6459 29.5395 95.7119 29.4723 95.713 29.3898C95.7144 29.3054 95.6472 29.2364 95.5636 29.2364C94.732 29.2229 93.9189 29.5549 93.3322 30.1419C93.2729 30.2014 93.2731 30.2974 93.3324 30.3568C93.3633 30.3875 93.4038 30.4029 93.4441 30.401Z" fill="#272532"/>
<path d="M164.396 21.4065C165.101 21.6579 167.01 22.3294 168.581 24.1444C169.036 24.6701 169.471 25.1728 169.767 25.9767C170.152 27.0281 169.912 27.5461 169.759 29.6623C169.692 30.5967 169.54 33.2501 168.98 35.5352C168.934 35.7213 168.83 36.1242 168.569 36.1933C168.072 36.3238 167.631 35.0575 166.484 34.3207C165.693 33.8104 164.836 33.726 164.228 33.7336C162.624 33.3365 161.307 32.9316 160.314 32.5997C159.657 32.381 159.095 32.1776 158.719 31.6232C158.242 30.9209 158.347 30.0748 158.426 29.6834C158.038 29.2402 157.624 28.6186 157.777 28.0258C157.948 27.3562 158.729 27.1605 158.675 26.6693C158.627 26.2203 157.959 26.2376 157.654 25.5488C157.503 25.2054 157.445 24.697 157.664 24.2998C157.967 23.7492 158.545 23.8911 158.746 23.4C158.928 22.951 158.516 22.6728 158.694 22.1318C158.823 21.7423 159.155 21.5331 159.402 21.372C160.014 20.9748 160.669 20.9211 161.259 20.9192C162.98 20.9154 164.316 21.3797 164.396 21.4065Z" fill="#F7906D"/>
<path d="M163.002 26.9167C162.391 26.7613 161.776 26.6462 161.154 26.5714C160.532 26.4946 159.909 26.4563 159.285 26.4601C159.059 26.4639 158.834 26.4716 158.608 26.485C158.644 26.5368 158.667 26.5982 158.675 26.6692C158.681 26.7134 158.679 26.7556 158.671 26.7959C158.873 26.8208 164.16 27.4751 164.786 27.5269C164.208 27.2659 163.608 27.0721 163.002 26.9167Z" fill="#272532"/>
<path d="M162.012 30.0731C161.482 29.9119 160.943 29.7872 160.4 29.697C159.859 29.6088 159.314 29.5551 158.771 29.5397C158.614 29.5359 158.458 29.534 158.303 29.5378C158.343 29.5877 158.384 29.6376 158.426 29.6836C158.418 29.7201 158.41 29.7584 158.405 29.8006C158.526 29.8179 158.648 29.8333 158.771 29.8505C159.305 29.9234 159.836 30.0021 160.367 30.0904C160.899 30.1786 163.025 30.5911 163.566 30.689C163.065 30.4338 162.543 30.2381 162.012 30.0731Z" fill="#272532"/>
<path d="M162.674 23.7436C163.209 23.7935 163.742 23.8472 164.289 23.876C163.79 23.663 163.27 23.5114 162.743 23.3906C162.213 23.2716 161.676 23.1872 161.135 23.1392C160.594 23.0894 160.049 23.0721 159.502 23.0932C159.266 23.1028 159.03 23.12 158.794 23.145C158.796 23.2198 158.785 23.3004 158.752 23.3848C158.996 23.4078 162.674 23.7436 162.674 23.7436Z" fill="#272532"/>
<path d="M166.518 32.1067C163.36 31.7709 158.249 46.9222 158.249 46.9222C154.379 57.1446 152.29 62.8736 153.495 70.1951C153.792 72.0024 155.256 80.2505 159.423 81.1964C161.985 81.7778 165.358 79.3641 166.543 76.1831C166.954 75.078 167.013 74.1608 167.023 73.9133C167.209 69.2703 170.311 36.5022 168.957 33.7375C168.679 33.1677 168.241 32.7974 168.241 32.7974C168.241 32.7974 167.56 32.218 166.518 32.1067Z" fill="#F7906D"/>
<path d="M164.772 34.0771C165.028 34.0598 165.277 34.0579 165.525 34.056H167C167.247 34.056 167.495 34.0522 167.752 34.0694C167.516 34.1711 167.269 34.2364 167.019 34.2805C166.77 34.3227 166.516 34.3457 166.263 34.3457C166.008 34.3457 165.755 34.3265 165.505 34.2843C165.256 34.2402 165.008 34.1769 164.772 34.0771Z" fill="#272532"/>
<path d="M170.503 18.3677C170.503 18.3677 166.933 22.0859 167.452 25.7906C167.741 27.8571 168.264 28.3999 168.695 28.4038C168.927 28.4057 169.146 28.1479 169.379 27.8823C169.871 27.3259 170.059 26.7133 170.116 26.5195C170.579 24.9357 170.156 24.2145 170.519 22.7121C170.777 21.6517 171.079 21.6226 171.717 19.5619C172.027 18.5558 172.093 18.1157 171.899 17.9354C171.558 17.6155 170.602 18.2979 170.503 18.3677Z" fill="#F7906D"/>
<path d="M189.82 139.142L187.926 135.969L184.761 135.691L187.55 133.997L188.214 130.631L189.843 133.548L193.274 134.085L190.236 135.593L189.82 139.142Z" fill="white"/>
<path d="M199.202 150.93L196.885 147.049L193.015 146.709L196.426 144.637L197.238 140.522L199.231 144.089L203.425 144.745L199.711 146.589L199.202 150.93Z" fill="white"/>
<path d="M200.426 138.033L199.095 135.804L196.873 135.608L198.832 134.419L199.298 132.057L200.441 134.104L202.849 134.48L200.718 135.539L200.426 138.033Z" fill="white"/>
<path d="M35.439 218.882L38.4137 222.416L42.3731 222.124L39.273 224.774L39.1299 229.058L36.5336 225.802H32.1958L35.6399 223.345L35.439 218.882Z" fill="white"/>
<path d="M21.4998 206.223L25.1373 210.546L29.9795 210.191L26.1883 213.431L26.0132 218.669L22.8382 214.686H17.5334L21.7454 211.683L21.4998 206.223Z" fill="white"/>
<path d="M22.5798 222.382L24.6682 224.862L27.4479 224.657L25.2714 226.518L25.1709 229.527L23.3482 227.24H20.303L22.7208 225.515L22.5798 222.382Z" fill="white"/>
<path d="M143.608 50.6252C144.6 54.4317 145.686 60.4216 144.922 67.6586C144.731 69.4775 143.689 79.343 141.283 79.5656C139.712 79.7095 137.087 75.7821 132.549 56.4865L143.608 50.6252Z" fill="#272532"/>
<path d="M64.7998 58.8003C64.7998 58.8003 66.1137 86.0216 71.2308 87.1114C76.3481 88.2011 76.5816 63.0231 76.5816 63.0231L64.7998 58.8003Z" fill="#272532"/>
<path d="M156.808 82.5776C155.546 82.5776 154.262 82.3397 153.021 81.837L113.538 65.8511C108.365 63.756 105.871 57.8658 107.965 52.6933C110.058 47.5226 115.949 45.0265 121.122 47.1197L160.603 63.1056C165.776 65.2007 168.272 71.0909 166.177 76.2635C164.586 80.1928 160.803 82.5776 156.808 82.5776Z" fill="#F7906D"/>
<path d="M51.4428 91.8755C47.8189 91.8755 44.3159 89.9223 42.5034 86.4957C39.894 81.5629 41.7772 75.4502 46.7095 72.8409L77.4751 56.5653C82.4075 53.956 88.521 55.8381 91.1303 60.7709C93.7396 65.7036 91.8565 71.8164 86.9241 74.4257L56.1587 90.7013C54.6526 91.4975 53.0358 91.8755 51.4428 91.8755Z" fill="#F7906D"/>
<path d="M143.428 56.1525L130.587 50.9531L120.986 68.3012C120.986 68.3012 121.836 68.8691 123.217 69.7689L143.819 78.1111C140.441 70.9028 142.733 59.2242 143.428 56.1525Z" fill="#DA5026"/>
<path d="M63.1968 64.1188C65.4847 67.9791 70.1105 76.3346 71.3169 82.6833L77.8207 79.2413C81.141 73.5546 84.4689 67.4304 84.4689 67.4304L75.3315 57.6991L63.1968 64.1188Z" fill="#DA5026"/>
<path d="M152.211 59.708C150.742 65.5712 154.657 73.3896 153.495 70.1951C153.406 69.9514 153.334 69.6886 153.272 69.4104C152.695 66.7243 153.37 62.5955 153.829 60.3622L152.211 59.708Z" fill="#272532"/>
<path d="M89.7509 243.747L118.918 129.597C119.186 128.517 119.397 127.293 119.486 126.148C120.336 115.045 112.026 105.355 100.925 104.506C89.823 103.656 80.1344 111.967 79.2843 123.068L70.0112 244.156C69.916 245.384 70.0634 246.593 70.4164 247.726C78.4234 247.354 84.7742 245.783 89.7509 243.747Z" fill="#8A4996"/>
<path d="M100.924 104.506C89.8228 103.656 80.1342 111.967 79.284 123.068L78.52 133.045C83.2156 135.407 89.2462 137.266 95.0192 135.635C103.218 133.318 111.027 125.148 118.889 119.488C116.769 111.407 109.723 105.181 100.924 104.506Z" fill="#6A2777"/>
<path d="M70.4163 247.726C78.4232 247.354 84.774 245.783 89.7507 243.747L98.5215 209.419C97.6441 214.755 94.8301 227.122 84.4373 237.698C79.5001 242.721 74.3419 245.825 70.4163 247.726Z" fill="#6A2777"/>
<path d="M72.2015 246.934L71.8335 246.9L82.0156 136.236L82.3838 136.268L72.2015 246.934Z" fill="white"/>
<path d="M93.9902 43.53C93.9902 43.53 105.626 55.6154 114.604 45.4582L143.608 50.6251C143.608 50.6251 136.114 73.6216 141.283 79.5655C138.401 78.9899 135.517 78.4143 132.636 77.8387C135.949 90.5592 139.262 103.278 142.574 115.998C129.911 115.802 120.255 117.844 113.619 119.841C106.282 122.047 100.836 124.741 90.897 126.334C84.2502 127.397 78.6543 127.477 74.877 127.366C75.7814 112.924 76.6858 98.483 77.5903 84.0435C75.5231 85.1755 73.4562 86.3094 71.3891 87.4414C71.6788 83.7097 71.6742 78.2359 70.1025 71.8949C68.7157 66.3002 66.5764 61.9161 64.7998 58.8943L93.9902 43.53Z" fill="white"/>
<path d="M132.244 71.7952C132.156 71.7952 132.077 71.7299 132.062 71.6397C130.241 59.9918 122.601 49.2034 122.524 49.096C122.465 49.0135 122.484 48.8984 122.569 48.8389C122.651 48.7794 122.766 48.7986 122.826 48.8811C122.902 48.9905 130.594 59.8479 132.428 71.5822C132.444 71.682 132.375 71.7779 132.273 71.7932C132.263 71.7952 132.254 71.7952 132.244 71.7952Z" fill="#F8CA98"/>
<path d="M80.0446 78.5007C79.9458 78.5007 79.8638 78.4221 79.86 78.3223C79.5181 69.4756 85.6419 50.7556 85.7039 50.5676C85.7358 50.4697 85.8407 50.4179 85.9372 50.4506C86.0341 50.4813 86.0869 50.5868 86.055 50.6827C85.9934 50.8707 79.8901 69.5293 80.2293 78.3089C80.2334 78.4106 80.1537 78.495 80.0519 78.5007C80.0494 78.5007 80.0469 78.5007 80.0446 78.5007Z" fill="#F8CA98"/>
<path d="M164.759 139.795C164.671 136.988 164.456 134.104 163.974 131.33C163.443 128.26 162.378 123.721 159.489 119.91C152.971 111.317 139.996 111.89 136.546 112.036C130.136 112.305 125.949 114.346 125.03 114.809C123.008 115.829 121.31 117.032 117.68 120.378C109.239 128.158 105.019 132.047 103.93 136.627C103.724 137.496 101.978 145.297 106.228 149.587C107.067 150.435 109.303 152.249 124.142 152.344C128.894 152.375 132.805 152.178 135.423 152.001C138.083 170.165 140.32 193.528 142.476 211.96C149.205 210.112 155.83 207.184 160.774 204.715C162.221 183.514 164.882 161.026 164.759 139.795Z" fill="#8A4996"/>
<path d="M138.096 144.127C136.653 146.03 135.544 148.292 135.057 149.921C135.326 148.11 135.531 146.596 135.681 145.324L135.682 145.309C135.746 144.77 135.913 143.34 136.544 141.683C137.306 139.684 138.422 138.011 138.712 138.011C138.842 138.11 138.981 139.004 138.555 141.679C138.432 142.456 138.276 143.289 138.096 144.127ZM137.072 148.143C136.022 151.564 135.406 151.767 135.293 151.773C135.256 151.773 135.235 151.767 135.218 151.746C134.829 151.272 135.905 147.947 137.893 145.042C137.641 146.134 137.357 147.206 137.072 148.143ZM141.502 141.077C141.269 141.061 140.794 141.205 139.38 142.636C139.115 142.903 138.856 143.189 138.606 143.486C138.852 142.247 139.036 141.092 139.132 140.146C139.334 138.189 139.107 137.803 138.888 137.686C138.823 137.652 138.714 137.621 138.57 137.675C137.889 137.93 136.755 140.09 136.199 141.55C135.55 143.252 135.379 144.714 135.316 145.265L135.314 145.282C135.109 147.034 134.796 149.25 134.355 152.068C134.483 152.061 134.608 152.053 134.733 152.045C134.756 151.901 134.777 151.757 134.8 151.615C134.819 151.773 134.863 151.898 134.932 151.98C134.946 151.997 134.963 152.013 134.98 152.03C135.132 152.02 135.28 152.011 135.423 152.001C135.429 152.039 135.435 152.078 135.439 152.116C136.694 151.708 137.973 146.395 138.344 144.73C138.378 144.58 138.411 144.432 138.441 144.283C138.817 143.793 139.218 143.325 139.642 142.895C141.032 141.489 141.415 141.437 141.475 141.445C141.5 141.506 141.598 141.965 140.429 144.329C139.744 145.714 138.748 147.494 137.827 148.977C137.087 150.167 136.3 151.316 135.481 152.406C135.506 152.577 135.531 152.747 135.556 152.918C136.461 151.736 137.329 150.48 138.14 149.173C139.073 147.675 140.078 145.875 140.769 144.476C142.135 141.706 141.876 141.362 141.766 141.215C141.703 141.132 141.611 141.084 141.502 141.077Z" fill="white"/>
<path d="M119.485 126.148L113.14 152.018C115.919 152.279 119.518 152.314 124.142 152.344C128.282 152.371 131.782 152.225 134.347 152.07C130.517 152.114 117.87 150.443 119.485 126.148Z" fill="#6A2777"/>
<path d="M139.071 181.281C140.258 191.893 141.377 202.566 142.476 211.96C148.967 210.177 155.36 207.39 160.242 204.98C148.082 201.814 142.196 191.193 139.071 181.281Z" fill="#6A2777"/>
<path d="M69.9826 259.66C69.658 265.597 69.3334 271.533 69.0085 277.469C72.6299 277.734 76.2511 278 79.8725 278.265C81.4834 271.377 83.0945 264.489 84.7055 257.602L69.9826 259.66Z" fill="white"/>
<path d="M84.7055 294.286H62.0361V284.982H84.7055V294.286Z" fill="#272532"/>
<path d="M83.3098 284.982C83.3188 284.811 83.3236 284.639 83.3236 284.466C83.3236 279.044 78.8676 274.647 73.3708 274.647C67.8741 274.647 63.418 279.044 63.418 284.466C63.418 284.639 63.423 284.811 63.432 284.982H83.3098Z" fill="white"/>
<path d="M78.8577 278.375C78.8134 278.375 78.7691 278.359 78.7338 278.329C74.7513 274.725 70.1131 277.028 70.0668 277.051C69.9759 277.099 69.8646 277.062 69.8182 276.97C69.7717 276.88 69.8076 276.769 69.8984 276.723C69.9471 276.698 74.8064 274.276 78.9817 278.054C79.0574 278.121 79.0632 278.238 78.9947 278.315C78.9583 278.355 78.908 278.375 78.8577 278.375Z" fill="#19364D"/>
<path d="M78.1503 273.626C78.1389 273.626 78.1276 273.626 78.1163 273.624C78.016 273.605 77.9496 273.509 77.9684 273.407L80.6529 258.941C80.7872 258.218 80.5875 257.483 80.1051 256.924C79.6322 256.38 78.9515 256.082 78.2353 256.111C76.9788 256.163 75.7693 256.594 74.9759 256.949C74.1131 257.335 73.5556 258.193 73.5556 259.137V272.928C73.5556 273.031 73.4729 273.114 73.3708 273.114C73.2687 273.114 73.186 273.031 73.186 272.928V259.137C73.186 258.049 73.8294 257.057 74.8251 256.612C76.0221 256.078 77.1645 255.785 78.2205 255.743C79.0482 255.708 79.8377 256.051 80.3845 256.683C80.9409 257.325 81.1713 258.173 81.0163 259.008L78.3316 273.476C78.3151 273.565 78.2376 273.626 78.1503 273.626Z" fill="#19364D"/>
<path d="M80.0446 271.214C80.0099 271.214 79.9748 271.205 79.9435 271.185C75.6224 268.359 71.7524 271.151 71.714 271.178C71.6319 271.239 71.516 271.222 71.4555 271.139C71.3947 271.059 71.412 270.942 71.4941 270.882C71.535 270.852 75.612 267.91 80.1457 270.875C80.2313 270.93 80.2553 271.045 80.1994 271.132C80.1639 271.185 80.1049 271.214 80.0446 271.214Z" fill="#19364D"/>
<path d="M80.0447 268.118C80.0097 268.118 79.9748 268.108 79.9435 268.089C75.6291 265.266 71.7524 268.054 71.7138 268.083C71.6317 268.142 71.516 268.125 71.4554 268.043C71.3948 267.96 71.412 267.845 71.4941 267.786C71.535 267.755 75.6121 264.814 80.1458 267.778C80.2313 267.836 80.2553 267.949 80.1995 268.035C80.164 268.089 80.1049 268.118 80.0447 268.118Z" fill="#19364D"/>
<path d="M80.0447 265.021C80.0097 265.021 79.9748 265.011 79.9435 264.992C75.6291 262.17 71.7524 264.958 71.7138 264.986C71.6317 265.046 71.516 265.029 71.4554 264.946C71.3948 264.864 71.412 264.749 71.4941 264.689C71.535 264.658 75.6121 261.717 80.1458 264.681C80.2313 264.739 80.2553 264.852 80.1995 264.938C80.164 264.992 80.1049 265.021 80.0447 265.021Z" fill="#19364D"/>
<path d="M146.187 222.126C146.759 228.043 147.332 233.96 147.904 239.877C151.524 239.595 155.145 239.311 158.763 239.029C159.32 231.979 159.876 224.926 160.431 217.875L146.187 222.126Z" fill="white"/>
<path d="M165.266 255.489L142.626 256.665L142.142 247.375L164.782 246.199L165.266 255.489Z" fill="#272532"/>
<path d="M163.387 246.272C163.389 246.099 163.383 245.929 163.376 245.754C163.094 240.34 158.416 236.18 152.927 236.466C147.436 236.752 143.215 241.372 143.497 246.788C143.505 246.961 143.52 247.134 143.537 247.304L163.387 246.272Z" fill="white"/>
<path d="M148.779 239.34C148.721 239.34 148.666 239.313 148.629 239.263C148.57 239.181 148.589 239.066 148.671 239.006C148.715 238.974 153.155 235.848 157.852 238.954C157.936 239.01 157.959 239.125 157.904 239.21C157.848 239.296 157.733 239.319 157.647 239.263C153.169 236.301 148.93 239.275 148.888 239.306C148.855 239.329 148.817 239.34 148.779 239.34Z" fill="#19364D"/>
<path d="M151.532 234.918C151.444 234.918 151.363 234.852 151.35 234.76L149.274 221.125C149.111 220.048 149.596 218.972 150.515 218.383C151.616 217.673 152.702 217.213 153.74 217.011C154.554 216.854 155.385 217.075 156.022 217.618C156.668 218.168 157.023 218.97 156.996 219.82L156.519 234.526C156.517 234.628 156.428 234.711 156.329 234.705C156.227 234.701 156.146 234.617 156.15 234.515L156.626 219.809C156.651 219.072 156.342 218.375 155.782 217.898C155.231 217.43 154.514 217.24 153.809 217.374C152.576 217.614 151.446 218.224 150.715 218.694C149.919 219.204 149.498 220.137 149.64 221.069L151.716 234.705C151.732 234.805 151.663 234.9 151.561 234.916C151.551 234.916 151.542 234.918 151.532 234.918Z" fill="#19364D"/>
<path d="M149.5 233.306C149.454 233.306 149.406 233.289 149.37 233.252C149.299 233.181 149.297 233.064 149.37 232.992C149.406 232.955 152.994 229.434 157.921 231.683C158.015 231.725 158.055 231.835 158.013 231.927C157.971 232.021 157.862 232.061 157.768 232.019C153.079 229.88 149.665 233.218 149.631 233.252C149.596 233.289 149.548 233.306 149.5 233.306Z" fill="#19364D"/>
<path d="M149.034 230.246C148.988 230.246 148.94 230.227 148.904 230.192C148.833 230.119 148.831 230.002 148.904 229.929C148.94 229.895 152.528 226.374 157.455 228.621C157.549 228.663 157.589 228.774 157.547 228.866C157.505 228.958 157.395 229.001 157.301 228.958C152.612 226.819 149.199 230.158 149.165 230.19C149.13 230.227 149.082 230.246 149.034 230.246Z" fill="#19364D"/>
<path d="M148.568 227.184C148.522 227.184 148.474 227.167 148.437 227.13C148.366 227.057 148.364 226.94 148.437 226.869C148.474 226.833 152.062 223.312 156.989 225.561C157.083 225.603 157.123 225.712 157.081 225.804C157.038 225.898 156.929 225.939 156.837 225.896C152.146 223.757 148.733 227.096 148.7 227.13C148.664 227.167 148.616 227.184 148.568 227.184Z" fill="#19364D"/>
<path d="M183.147 292.714H116.166V254.513H183.147V292.714Z" fill="white"/>
<path d="M123.743 292.511C123.633 292.511 123.543 292.422 123.543 292.311V257.602C123.543 257.492 123.633 257.402 123.743 257.402C123.854 257.402 123.944 257.492 123.944 257.602V292.311C123.944 292.422 123.854 292.511 123.743 292.511Z" fill="#3E2D6F"/>
<path d="M175.937 257.803H127.461C127.35 257.803 127.26 257.713 127.26 257.602C127.26 257.492 127.35 257.402 127.461 257.402H175.937C176.048 257.402 176.136 257.492 176.136 257.602C176.136 257.713 176.048 257.803 175.937 257.803Z" fill="#3E2D6F"/>
<path d="M51.156 181.296L50.7575 181.264C50.7655 181.162 51.561 170.917 50.2678 157.45C49.0752 145.031 45.8119 127.251 37.0369 113.086L37.3768 112.877C42.2436 120.731 48.4996 134.837 50.6669 157.421C51.9622 170.921 51.1644 181.195 51.156 181.296Z" fill="#3E2D6F"/>
<path d="M173.168 95.7048C169.707 95.7048 165.6 95.1024 160.864 93.8956C152.967 91.8849 146.172 88.8477 146.104 88.817L146.268 88.4525C146.538 88.5733 173.286 100.459 182.823 92.5794C186.173 89.8128 187.034 84.8838 185.386 77.9288L185.776 77.8367C187.462 84.9529 186.555 90.018 183.078 92.8883C180.807 94.7647 177.489 95.7048 173.168 95.7048Z" fill="#3E2D6F"/>
<path d="M30.258 267.628L29.9534 267.369C40.2667 255.248 48.3466 241.812 53.9685 227.437C63.2957 203.589 65.7749 177.607 61.3375 150.213C58.8134 134.63 53.9858 118.713 47.3763 104.178L47.7405 104.013C54.3643 118.579 59.2027 134.532 61.7324 150.148C66.1815 177.615 63.6945 203.667 54.3409 227.583C48.7029 242 40.6003 255.472 30.258 267.628Z" fill="#3E2D6F"/>
<path d="M12.368 83.8267C15.0366 84.5174 17.6505 82.0884 19.632 80.2772C19.9381 79.9971 23.4134 76.7949 22.8515 75.9853C22.6232 75.6553 22.027 76.1522 20.8703 76.0678C18.0475 75.8587 16.5588 72.4953 13.7018 72.2152C13.6131 72.2056 13.5439 72.1999 13.4973 72.196C11.74 72.0425 10.7738 71.9466 10.0566 72.6009C7.56375 74.8725 11.0468 83.2473 11.0472 83.2492C11.3298 83.4295 11.7793 83.6751 12.368 83.8267Z" fill="#E97C6C"/>
<path d="M60.5928 34.8003L75.6603 108.268L22.3297 119.204L7.26221 45.7383L60.5928 34.8003Z" fill="#F9EAE3"/>
<path d="M43.1306 48.9195L44.145 53.8656L49.091 52.8526L48.0768 47.9064L43.1306 48.9195ZM44.0009 54.2686C43.915 54.2686 43.838 54.2091 43.82 54.1208L42.7314 48.8139C42.7214 48.766 42.7312 48.7161 42.758 48.6739C42.7851 48.6336 42.8273 48.6048 42.8753 48.5952L48.1835 47.5073C48.2313 47.4958 48.2815 47.5054 48.3224 47.5323C48.3633 47.5611 48.3919 47.6033 48.4016 47.6512L49.4903 52.9581C49.5108 53.0579 49.4463 53.1557 49.3464 53.1769L44.0381 54.2647C44.0257 54.2686 44.0132 54.2686 44.0009 54.2686Z" fill="#272532"/>
<path d="M51.8596 47.1294L52.874 52.0756L57.82 51.0626L56.8056 46.1164L51.8596 47.1294ZM52.7299 52.4785C52.6439 52.4785 52.567 52.419 52.5492 52.3308L51.4604 47.0239C51.4398 46.9222 51.5043 46.8263 51.6043 46.8052L56.9125 45.7154C57.0124 45.6962 57.1103 45.7595 57.1306 45.8593L58.2193 51.1681C58.2398 51.2679 58.1753 51.3657 58.0754 51.3868L52.7671 52.4747C52.7546 52.4785 52.7422 52.4785 52.7299 52.4785Z" fill="#272532"/>
<path d="M44.9963 58.0178L46.0106 62.964L50.9568 61.9491L49.9425 57.0029L44.9963 58.0178ZM45.8666 63.3669C45.7806 63.3669 45.7037 63.3055 45.6858 63.2192L44.597 57.9104C44.5872 57.8624 44.5968 57.8125 44.6239 57.7722C44.6507 57.73 44.6929 57.7032 44.7409 57.6917L50.0491 56.6038C50.0971 56.5942 50.1472 56.6038 50.188 56.6307C50.2291 56.6575 50.2575 56.6998 50.2673 56.7477L51.3561 62.0565C51.3766 62.1563 51.3122 62.2541 51.212 62.2733L45.904 63.3631C45.8913 63.365 45.8788 63.3669 45.8666 63.3669Z" fill="#272532"/>
<path d="M53.7253 56.2273L54.7399 61.1735L59.6859 60.1586L58.6715 55.2124L53.7253 56.2273ZM54.5958 61.5764C54.5097 61.5764 54.4327 61.515 54.4149 61.4287L53.3261 56.1199C53.3055 56.0201 53.37 55.9223 53.47 55.9012L58.7782 54.8133C58.8262 54.8037 58.8763 54.8133 58.9171 54.8402C58.9582 54.867 58.9866 54.9092 58.9966 54.9572L60.0852 60.266C60.095 60.314 60.0854 60.3639 60.0583 60.4041C60.0315 60.4444 59.9892 60.4732 59.9413 60.4828L54.633 61.5726C54.6204 61.5745 54.6081 61.5764 54.5958 61.5764Z" fill="#272532"/>
<path d="M46.8622 67.1138L47.8767 72.06L52.8227 71.047L51.8083 66.1008L46.8622 67.1138ZM47.7328 72.4629C47.6969 72.4629 47.6614 72.4533 47.6309 72.4322C47.5901 72.4053 47.5615 72.3631 47.5517 72.3152L46.4631 67.0083C46.4531 66.9603 46.4627 66.9104 46.4899 66.8682C46.5168 66.8279 46.5588 66.7991 46.607 66.7895L51.9152 65.7017C52.0158 65.6806 52.1128 65.7439 52.1334 65.8456L53.222 71.1525C53.2425 71.2522 53.178 71.3501 53.0781 71.3712L47.7699 72.459C47.7576 72.4629 47.7453 72.4629 47.7328 72.4629Z" fill="#272532"/>
<path d="M55.5911 65.3238L56.6054 70.2699L61.5514 69.255L60.5371 64.3107L55.5911 65.3238ZM56.4615 70.6729C56.4257 70.6729 56.3902 70.6632 56.3597 70.6421C56.3188 70.6153 56.2902 70.5731 56.2804 70.5251L55.1918 65.2163C55.1713 65.1165 55.2357 65.0206 55.3357 64.9995L60.6439 63.9097C60.7443 63.8905 60.8416 63.9539 60.8621 64.0536L61.9507 69.3624C61.9607 69.4104 61.9509 69.4603 61.924 69.5006C61.897 69.5428 61.8548 69.5716 61.8068 69.5812L56.4986 70.669C56.4863 70.6728 56.4738 70.6729 56.4615 70.6729Z" fill="#272532"/>
<path d="M48.7277 76.2119L49.7421 81.1581L54.6883 80.1432L53.6737 75.197L48.7277 76.2119ZM49.598 81.561C49.5121 81.561 49.4351 81.4996 49.4173 81.4133L48.3285 76.1045C48.3081 76.0047 48.3724 75.9069 48.4724 75.8858L53.7806 74.7979C53.8811 74.7768 53.9784 74.842 53.9987 74.9418L55.0876 80.2506C55.1079 80.3504 55.0436 80.4482 54.9437 80.4674L49.6354 81.5572C49.623 81.5591 49.6103 81.561 49.598 81.561Z" fill="#272532"/>
<path d="M57.4568 74.4219L58.4712 79.3681L63.4174 78.3531L62.403 73.4069L57.4568 74.4219ZM58.3273 79.771C58.2914 79.771 58.2559 79.7595 58.2256 79.7403C58.1848 79.7134 58.1562 79.6712 58.1462 79.6233L57.0578 74.3144C57.0372 74.2147 57.1017 74.1168 57.2017 74.0957L62.5099 73.0079C62.5577 72.9983 62.6078 73.0079 62.6486 73.0347C62.6897 73.0616 62.7183 73.1038 62.7279 73.1518L63.8167 78.4606C63.8372 78.5603 63.7727 78.6582 63.6728 78.6774L58.3645 79.7672C58.3523 79.7691 58.3398 79.771 58.3273 79.771Z" fill="#272532"/>
<path d="M50.6283 85.4788L51.6427 90.425L56.5889 89.41L55.5745 84.4638L50.6283 85.4788ZM51.4986 90.8279C51.4127 90.8279 51.3357 90.7684 51.3179 90.6801L50.2291 85.3713C50.2193 85.3234 50.2289 85.2735 50.2559 85.2332C50.283 85.191 50.325 85.1641 50.373 85.1526L55.6814 84.0648C55.7292 84.0552 55.7792 84.0647 55.8201 84.0916C55.8612 84.1185 55.8898 84.1607 55.8994 84.2087L56.9882 89.5175C57.0087 89.6172 56.9442 89.7151 56.8443 89.7343L51.536 90.824C51.5234 90.826 51.5109 90.8279 51.4986 90.8279Z" fill="#272532"/>
<path d="M59.3573 83.6887L60.3718 88.6349L65.3178 87.62L64.3035 82.6738L59.3573 83.6887ZM60.2279 89.0378C60.1921 89.0378 60.1564 89.0263 60.1261 89.0071C60.0852 88.9803 60.0566 88.9381 60.0468 88.8901L58.9582 83.5813C58.9482 83.5333 58.9578 83.4834 58.9849 83.4431C59.0119 83.4009 59.0539 83.3741 59.1021 83.3626L64.4101 82.2747C64.5105 82.2536 64.6079 82.3188 64.6285 82.4186L65.7171 87.7274C65.7376 87.8272 65.6732 87.925 65.5732 87.9442L60.265 89.034C60.2527 89.0359 60.2402 89.0378 60.2279 89.0378Z" fill="#272532"/>
<path d="M52.4943 94.575L53.5087 99.5212L58.4547 98.5081L57.4403 93.5619L52.4943 94.575ZM53.3646 99.9241C53.2787 99.9241 53.2017 99.8646 53.1837 99.7763L52.0951 94.4694C52.0853 94.4215 52.0947 94.3716 52.1219 94.3294C52.1488 94.2891 52.191 94.2603 52.239 94.2507L57.5472 93.1629C57.595 93.1514 57.645 93.161 57.6861 93.1878C57.727 93.2166 57.7556 93.2569 57.7654 93.3068L58.854 98.6137C58.8639 98.6616 58.8542 98.7115 58.8273 98.7537C58.8003 98.794 58.758 98.8228 58.7101 98.8324L53.4018 99.9202C53.3894 99.9241 53.3769 99.9241 53.3646 99.9241Z" fill="#272532"/>
<path d="M61.2234 92.7847L62.2378 97.7309L67.1838 96.7159L66.1694 91.7697L61.2234 92.7847ZM62.0939 98.1338C62.058 98.1338 62.0225 98.1242 61.992 98.1031C61.9511 98.0762 61.9227 98.034 61.9127 97.9861L60.8241 92.6792C60.8036 92.5775 60.8681 92.4815 60.968 92.4604L66.2763 91.3707C66.324 91.3611 66.3743 91.3707 66.4152 91.3975C66.456 91.4244 66.4846 91.4666 66.4944 91.5146L67.583 96.8234C67.6036 96.9231 67.5391 97.021 67.4391 97.0421L62.1309 98.1299C62.1186 98.1338 62.1063 98.1338 62.0939 98.1338Z" fill="#272532"/>
<path d="M14.5944 57.5342C14.5085 57.5342 14.4315 57.4747 14.4135 57.3864C14.3929 57.2867 14.4574 57.1888 14.5574 57.1696L38.8561 52.1851C38.9564 52.164 39.0537 52.2292 39.0742 52.329C39.0948 52.4287 39.0303 52.5266 38.9303 52.5477L14.6318 57.5303C14.6192 57.5342 14.6067 57.5342 14.5944 57.5342Z" fill="#EDB775"/>
<path d="M15.1389 60.1895C15.0529 60.1895 14.976 60.1281 14.9582 60.0417C14.9376 59.94 15.0021 59.8441 15.1021 59.823L39.4006 54.8384C39.5007 54.8193 39.5984 54.8826 39.6187 54.9823C39.6392 55.084 39.5748 55.1799 39.4748 55.201L15.1763 60.1856C15.1638 60.1875 15.1512 60.1895 15.1389 60.1895Z" fill="#EDB775"/>
<path d="M16.2031 65.3774C16.1172 65.3774 16.0402 65.318 16.0224 65.2297C16.0018 65.1299 16.0661 65.0321 16.1663 65.011L40.4648 60.0283C40.5651 60.0072 40.6624 60.0725 40.6829 60.1722C40.7035 60.272 40.639 60.3698 40.539 60.391L16.2403 65.3736C16.2279 65.3755 16.2154 65.3774 16.2031 65.3774Z" fill="#EDB775"/>
<path d="M16.7473 68.0327C16.6613 68.0327 16.5844 67.9713 16.5666 67.8831C16.546 67.7833 16.6105 67.6874 16.7105 67.6663L41.009 62.6817C41.1093 62.6625 41.2066 62.7258 41.2271 62.8256C41.2476 62.9254 41.1832 63.0232 41.0832 63.0443L16.7847 68.027C16.772 68.0308 16.7596 68.0327 16.7473 68.0327Z" fill="#EDB775"/>
<path d="M18.206 75.1431C18.1198 75.1431 18.0429 75.0817 18.0251 74.9953C18.0045 74.8956 18.069 74.7977 18.1689 74.7766L42.4675 69.794C42.5676 69.7729 42.6653 69.8362 42.6856 69.9379C42.7061 70.0376 42.6417 70.1355 42.5417 70.1547L18.2432 75.1392C18.2307 75.1411 18.2183 75.1431 18.206 75.1431Z" fill="#EDB775"/>
<path d="M18.7502 77.7964C18.6642 77.7964 18.5873 77.7369 18.5692 77.6486C18.5487 77.5489 18.6132 77.451 18.7131 77.4299L43.0118 72.4473C43.1122 72.4262 43.2095 72.4914 43.23 72.5912C43.2505 72.691 43.186 72.7888 43.0861 72.8099L18.7874 77.7925C18.7749 77.7945 18.7624 77.7964 18.7502 77.7964Z" fill="#EDB775"/>
<path d="M19.8144 82.9863C19.7284 82.9863 19.6513 82.9249 19.6334 82.8386C19.6129 82.7388 19.6774 82.641 19.7773 82.6199L44.0759 77.6353C44.1764 77.6161 44.2737 77.6794 44.294 77.7792C44.3145 77.8809 44.2502 77.9768 44.1501 77.9979L19.8516 82.9825C19.8391 82.9844 19.8266 82.9863 19.8144 82.9863Z" fill="#EDB775"/>
<path d="M20.3586 85.6399C20.2729 85.6399 20.1957 85.5785 20.1779 85.4922C20.1574 85.3924 20.2218 85.2945 20.3218 85.2734L44.6203 80.2908C44.7208 80.2697 44.8181 80.3349 44.8386 80.4347C44.8592 80.5345 44.7947 80.6323 44.6947 80.6515L20.396 85.6361C20.3836 85.638 20.3709 85.6399 20.3586 85.6399Z" fill="#EDB775"/>
<path d="M21.9487 93.3931C21.8629 93.3931 21.7858 93.3336 21.768 93.2453C21.7474 93.1456 21.8119 93.0477 21.9119 93.0266L46.2104 88.0439C46.3109 88.0228 46.4082 88.0881 46.4285 88.1878C46.449 88.2876 46.3848 88.3855 46.2846 88.4066L21.9861 93.3892C21.9736 93.3911 21.961 93.3931 21.9487 93.3931Z" fill="#EDB775"/>
<path d="M22.4933 96.0464C22.4074 96.0464 22.3304 95.9869 22.3124 95.8986C22.2919 95.7989 22.3563 95.701 22.4563 95.6818L46.7548 90.6973C46.8553 90.6781 46.9526 90.7414 46.9732 90.8412C46.9937 90.941 46.9292 91.0388 46.8293 91.0599L22.5306 96.0425C22.5181 96.0464 22.5056 96.0464 22.4933 96.0464Z" fill="#EDB775"/>
<path d="M23.5575 101.236C23.4714 101.236 23.3946 101.177 23.3766 101.088C23.3561 100.989 23.4206 100.891 23.5205 100.87L47.819 95.887C47.9196 95.8659 48.0168 95.9292 48.0372 96.0309C48.0577 96.1306 47.9932 96.2285 47.8933 96.2477L23.5948 101.232C23.5823 101.234 23.5698 101.236 23.5575 101.236Z" fill="#EDB775"/>
<path d="M24.102 103.89C24.0158 103.89 23.9389 103.83 23.921 103.742C23.9005 103.642 23.965 103.544 24.0649 103.523L48.3636 98.5405C48.4638 98.5194 48.5611 98.5847 48.5816 98.6844C48.6021 98.7842 48.5379 98.8821 48.4377 98.9032L24.1392 103.886C24.1265 103.888 24.1142 103.89 24.102 103.89Z" fill="#EDB775"/>
<path d="M46.6999 52.3174C46.6048 52.3174 46.5102 52.2905 46.4285 52.2368L44.5931 51.0262C44.3659 50.8765 44.3032 50.5695 44.453 50.3431C44.6029 50.1148 44.9085 50.0534 45.1359 50.2031L46.3519 51.005L47.3461 45.6943C47.3964 45.4276 47.6539 45.2511 47.9213 45.301C48.1888 45.3509 48.3651 45.608 48.315 45.8766L47.1842 51.9164C47.1539 52.0775 47.0443 52.2138 46.8924 52.279C46.8306 52.304 46.765 52.3174 46.6999 52.3174Z" fill="#3D6E92"/>
<path d="M56.6523 60.2932C56.5572 60.2932 56.4628 60.2663 56.3808 60.2126L54.5455 59.002C54.3183 58.8523 54.2556 58.5453 54.4054 58.3189C54.5553 58.0906 54.8609 58.0292 55.0883 58.1789L56.3043 58.9809L57.2985 53.6701C57.3488 53.4035 57.6059 53.2269 57.8737 53.2768C58.1414 53.3267 58.3175 53.5857 58.2674 53.8524L57.1368 59.8922C57.1063 60.0534 56.9967 60.1896 56.8448 60.2548C56.783 60.2817 56.7176 60.2932 56.6523 60.2932Z" fill="#3D6E92"/>
<path d="M58.4601 69.1072C58.3649 69.1072 58.2703 69.0803 58.1886 69.0266L56.3531 67.816C56.1259 67.6644 56.0632 67.3593 56.2132 67.1329C56.3629 66.9046 56.6685 66.8432 56.8958 66.9929L58.112 67.7949L59.1063 62.4841C59.1563 62.2174 59.4134 62.0409 59.6815 62.0908C59.9489 62.1407 60.1252 62.3978 60.0752 62.6664L58.9443 68.7043C58.914 68.8674 58.8045 69.0036 58.6525 69.0688C58.5907 69.0937 58.5251 69.1072 58.4601 69.1072Z" fill="#3D6E92"/>
<path d="M51.7055 80.5652C51.6104 80.5652 51.5158 80.5364 51.4341 80.4827L49.5987 79.272C49.3716 79.1224 49.3088 78.8173 49.4587 78.589C49.6085 78.3626 49.9141 78.2993 50.1415 78.449L51.3577 79.2509L52.3519 73.9421C52.4018 73.6735 52.6593 73.4989 52.9269 73.5488C53.1946 73.5987 53.3707 73.8558 53.3206 74.1225L52.1898 80.1623C52.1595 80.3254 52.0499 80.4616 51.898 80.5249C51.8362 80.5518 51.7708 80.5652 51.7055 80.5652Z" fill="#3D6E92"/>
<path d="M62.2712 87.6909C62.1761 87.6909 62.0815 87.6641 61.9997 87.6103L60.1644 86.3997C59.9372 86.25 59.8745 85.9431 60.0243 85.7167C60.1742 85.4883 60.4798 85.4269 60.7072 85.5766L61.9232 86.3786L62.9176 81.0678C62.9677 80.8012 63.2248 80.6246 63.4926 80.6745C63.7603 80.7244 63.9366 80.9815 63.8863 81.2501L62.7557 87.288C62.7252 87.4511 62.6156 87.5873 62.4637 87.6525C62.4019 87.6775 62.3365 87.6909 62.2712 87.6909Z" fill="#3D6E92"/>
<path d="M56.2566 98.9148C56.1614 98.9148 56.0668 98.8879 55.9851 98.8342L54.1497 97.6236C53.9226 97.4739 53.8598 97.1669 54.0097 96.9405C54.1595 96.7122 54.465 96.6508 54.6923 96.8005L55.9085 97.6025L56.9028 92.2917C56.953 92.025 57.2101 91.8485 57.478 91.8984C57.7456 91.9483 57.9217 92.2054 57.8717 92.474L56.741 98.5138C56.7105 98.675 56.601 98.8112 56.449 98.8764C56.3872 98.9033 56.3218 98.9148 56.2566 98.9148Z" fill="#3D6E92"/>
<path d="M37.8855 104.325C38.4653 103.314 39.1191 102.353 39.9023 101.488C40.1803 101.181 40.476 100.889 40.7858 100.613C40.3854 102.05 39.985 103.489 39.5846 104.926C39.0322 104.688 38.4641 104.487 37.8855 104.325ZM41.1859 99.5001C39.5172 100.728 38.2884 102.386 37.2767 104.168C36.4047 103.967 35.5125 103.85 34.6158 103.825C34.0348 103.809 33.4535 103.832 32.8756 103.894C32.7102 103.911 32.5676 104.024 32.5676 104.203C32.5676 104.354 32.709 104.529 32.8756 104.51C34.2447 104.366 35.6271 104.44 36.9672 104.728C36.7727 105.093 36.5848 105.459 36.4041 105.828C36.0691 106.509 35.7518 107.201 35.4363 107.892C35.3675 108.044 35.3932 108.224 35.5469 108.314C35.6792 108.391 35.8989 108.354 35.9684 108.203C36.4757 107.09 36.9914 105.962 37.5783 104.878C37.9703 104.982 38.358 105.104 38.7396 105.246C38.9691 105.331 39.1951 105.425 39.4186 105.523C39.2843 106.004 38.631 108.351 38.4386 109.043C38.3321 109.425 38.9263 109.588 39.0326 109.206C39.3497 108.067 39.6667 106.929 39.9837 105.789C40.0744 105.835 40.165 105.881 40.2544 105.929C40.6043 106.115 40.9161 105.582 40.5654 105.396C40.4288 105.323 40.2906 105.254 40.1517 105.187C40.4549 104.099 41.446 100.538 41.6385 99.8473C41.705 99.6075 41.4107 99.3351 41.1859 99.5001Z" fill="#C01A34"/>
<path d="M44.3742 104.45C44.139 104.272 43.8832 104.128 43.6142 104.02C43.8552 103.516 44.1459 103.036 44.4847 102.585C44.5848 102.453 44.506 102.242 44.3742 102.163C44.2165 102.071 44.0532 102.14 43.9529 102.274C43.5858 102.762 43.2719 103.287 43.0148 103.84C42.6154 103.759 42.201 103.746 41.7921 103.801C41.6271 103.824 41.5371 104.036 41.577 104.181C41.626 104.36 41.7904 104.419 41.956 104.396C42.2269 104.36 42.5031 104.367 42.7744 104.415C42.6338 104.784 42.5152 105.16 42.4249 105.544C42.3343 105.929 42.9281 106.094 43.0191 105.707C43.109 105.325 43.2276 104.951 43.3694 104.588C43.6156 104.688 43.85 104.82 44.0632 104.981C44.1956 105.083 44.4078 105.003 44.4845 104.872C44.5772 104.713 44.507 104.552 44.3742 104.45Z" fill="#C01A34"/>
<path d="M47.5317 99.2677C46.2497 97.9151 44.545 96.9942 42.7329 96.5817C40.9286 96.1711 38.9954 96.244 37.2495 96.8733C35.4655 97.5179 33.9236 98.7248 32.773 100.223C31.6396 101.699 30.8864 103.51 30.8396 105.382C30.7926 107.261 31.5105 109.08 32.7952 110.444C33.9713 111.695 35.5561 112.545 37.2069 112.982C39.0056 113.456 40.9062 113.396 42.6588 112.761C43.7196 112.376 44.6739 111.814 45.5471 111.106C46.7954 110.094 47.8017 108.78 48.1891 107.197C48.6257 105.413 48.2549 103.521 47.3134 101.96C47.2119 101.793 47.1035 101.628 46.9882 101.468C46.8905 101.334 46.7205 101.269 46.5667 101.359C46.4341 101.436 46.3579 101.645 46.4563 101.781C47.2608 102.888 47.7501 104.227 47.7599 105.607C47.7666 106.553 47.545 107.497 47.1058 108.337C46.757 109.003 46.2963 109.586 45.7547 110.106C45.546 110.306 45.3269 110.495 45.1018 110.678C45.0107 110.753 44.8037 110.914 44.7925 110.923C44.7519 110.956 44.8551 110.875 44.8175 110.904C44.7895 110.925 44.762 110.946 44.7338 110.967C44.3342 111.263 43.9055 111.522 43.4614 111.748C41.9486 112.514 40.174 112.84 38.5062 112.616C36.9396 112.404 35.4019 111.792 34.1429 110.833C32.7902 109.803 31.8321 108.326 31.541 106.641C31.2431 104.916 31.7035 103.134 32.5671 101.635C33.4476 100.108 34.753 98.813 36.3026 97.9688C37.8425 97.1304 39.6263 96.8234 41.3651 96.9827C43.0827 97.14 44.7829 97.7789 46.1482 98.8399C46.4859 99.1008 46.8019 99.3924 47.096 99.7032C47.3692 99.991 47.8046 99.5555 47.5317 99.2677Z" fill="#C01A34"/>
<path d="M18.8102 48.0234C18.5774 48.0234 18.3702 47.8565 18.3263 47.6205C18.2764 47.3519 18.4529 47.0948 18.7206 47.0449L49.7523 41.2699C50.0196 41.22 50.2772 41.3965 50.3271 41.6632C50.3768 41.9318 50.2003 42.1889 49.9326 42.2388L18.9009 48.0138C18.8704 48.0196 18.8401 48.0234 18.8102 48.0234Z" fill="#DA5026"/>
<path d="M15.3948 69.46H15.1249C15.0435 69.462 14.9639 69.4658 14.8851 69.4696C14.7272 69.4792 14.5716 69.4927 14.4169 69.5099C14.1073 69.5445 13.8007 69.5943 13.4962 69.6634C12.8876 69.7977 12.285 69.9992 11.7073 70.2851C11.4187 70.4289 11.1344 70.5882 10.8629 70.7762C10.5918 70.9623 10.328 71.1657 10.0812 71.394C9.58796 71.8506 9.15685 72.3879 8.80843 72.9788L8.79922 72.9941C8.352 73.752 8.62424 74.7669 9.40704 75.2581C10.19 75.7512 11.1873 75.5382 11.6346 74.7804C11.6829 74.6979 11.7257 74.6039 11.7573 74.5175C11.8911 74.1434 12.0718 73.7904 12.3072 73.4642C12.425 73.3011 12.5591 73.1476 12.7032 72.998C12.8473 72.8502 13.0087 72.7121 13.1787 72.5816C13.5192 72.3207 13.91 72.0981 14.3298 71.9159C14.5395 71.8257 14.7573 71.747 14.9781 71.678C15.0884 71.6434 15.1999 71.6127 15.31 71.5859C15.3651 71.5724 15.42 71.559 15.4729 71.5494L15.6067 71.5206C15.6088 71.5206 15.6038 71.5206 15.6038 71.5206C16.1692 71.4957 16.5807 71.0141 16.5232 70.4443C16.4654 69.8745 15.9603 69.4351 15.3948 69.46Z" fill="#F7906D"/>
<path d="M17.1367 71.632L16.5794 71.7395C16.4007 71.7778 16.2236 71.8162 16.0473 71.8565C15.6947 71.939 15.3445 72.0292 14.9955 72.127C14.2977 72.3208 13.6043 72.5491 12.9158 72.8273C12.571 72.9655 12.2274 73.1189 11.8858 73.2897C11.5434 73.4585 11.2034 73.6504 10.8663 73.8691C10.529 74.0859 10.1944 74.3373 9.87187 74.6347C9.54897 74.934 9.23547 75.2831 8.96725 75.7206L8.93636 75.7705C8.47762 76.5187 8.7326 77.5318 9.50561 78.0364C10.2788 78.539 11.2775 78.3433 11.736 77.5951C11.76 77.5567 11.7834 77.5145 11.8035 77.4742C11.877 77.3246 11.9998 77.1538 12.16 76.9811C12.3204 76.8104 12.5127 76.6358 12.7329 76.4727C12.953 76.3077 13.1917 76.1484 13.4457 75.9988C13.7005 75.8491 13.9681 75.7072 14.2444 75.5729C14.7981 75.3023 15.3852 75.0644 15.9882 74.8515C16.2896 74.744 16.5953 74.6442 16.9026 74.5502C17.0563 74.5023 17.2106 74.4582 17.3643 74.414L17.8641 74.2816C18.577 74.0994 18.9724 73.3607 18.7474 72.6335C18.5319 71.939 17.8218 71.5073 17.1367 71.632Z" fill="#F7906D"/>
<path d="M16.4162 74.9685L15.5618 75.1854C15.2834 75.2602 15.0062 75.3408 14.7295 75.4233C14.1762 75.5921 13.6244 75.7763 13.0719 75.9912C12.5181 76.208 11.9648 76.4478 11.3981 76.7701C11.1149 76.9313 10.8267 77.1136 10.5301 77.3553C10.3814 77.4762 10.2308 77.6124 10.078 77.7813L10.0216 77.8427L9.9637 77.9136C9.92533 77.9616 9.88829 78.0115 9.85011 78.0614C9.81404 78.1055 9.77414 78.1707 9.73768 78.2302C9.70046 78.2897 9.66478 78.3492 9.63005 78.4106C9.2398 79.1972 9.57864 80.1891 10.3869 80.6266C11.1951 81.064 12.1666 80.782 12.5569 79.9953C12.5563 79.9972 12.5546 79.9992 12.5519 79.9992C12.5519 79.9992 12.5414 80.0011 12.5479 79.9953C12.5511 79.9896 12.5536 79.9819 12.5556 79.9761L12.5584 79.9665L12.5699 79.9512C12.5941 79.9109 12.6384 79.8553 12.6947 79.7977C12.8077 79.6807 12.9663 79.5483 13.1459 79.4197C13.5055 79.1626 13.9347 78.9132 14.3827 78.6849C14.8322 78.4547 15.3047 78.2417 15.7871 78.0403C16.0281 77.9386 16.2721 77.8426 16.5173 77.7486L17.2871 77.4666C17.9505 77.2306 18.2654 76.4881 17.9904 75.807C17.7333 75.1719 17.0459 74.817 16.4162 74.9685Z" fill="#F7906D"/>
<path d="M15.5372 78.7289L14.9386 78.8038C14.745 78.8306 14.552 78.8613 14.3586 78.8959C13.9716 78.963 13.5831 79.0436 13.1859 79.151C12.7874 79.2585 12.3816 79.3851 11.9417 79.6C11.7186 79.7074 11.4862 79.8379 11.2293 80.049L11.1336 80.1295C11.1 80.1602 11.0658 80.1948 11.0326 80.2274C10.9991 80.2619 10.9666 80.2946 10.9336 80.3329C10.8982 80.3732 10.8642 80.4173 10.8312 80.4595C10.797 80.5056 10.7671 80.542 10.732 80.5996C10.6992 80.6552 10.666 80.709 10.6361 80.7665C10.6205 80.7953 10.6065 80.8203 10.5918 80.8548C10.5772 80.8874 10.5632 80.9219 10.5495 80.9545C10.5229 81.0236 10.4968 81.0927 10.4766 81.1637C10.2487 81.9637 10.7587 82.829 11.5747 83.0861C12.3906 83.3432 13.2222 82.9 13.4317 82.0961C13.4252 82.123 13.4158 82.1498 13.4041 82.1767C13.3981 82.1901 13.392 82.2016 13.3847 82.2151C13.3768 82.2266 13.3759 82.2324 13.3703 82.2419C13.3536 82.2765 13.3227 82.3091 13.3152 82.3206C13.3085 82.3264 13.3008 82.334 13.2924 82.3398C13.2878 82.3436 13.2874 82.3436 13.284 82.3455C13.2813 82.3475 13.277 82.3475 13.2746 82.3475C13.2763 82.3456 13.2778 82.3417 13.279 82.3398C13.2897 82.3129 13.3592 82.2496 13.4497 82.1882C13.6379 82.0597 13.9067 81.9273 14.1916 81.8103C14.4785 81.6913 14.7876 81.5839 15.1043 81.486C15.2626 81.438 15.4234 81.392 15.5848 81.3479L16.1195 81.2116C16.7852 81.0486 17.1607 80.3655 16.9583 79.6883C16.771 79.0609 16.1552 78.658 15.5372 78.7289Z" fill="#F7906D"/>
<path d="M16.2003 69.6846C16.075 69.6386 14.6994 69.1589 14.1472 69.746C14.1065 69.7882 13.808 70.1048 13.9077 70.3792C13.9569 70.5135 14.0816 70.5825 14.2024 70.6459C14.4348 70.7706 14.6784 70.7782 15.1562 70.7897C15.5543 70.7974 15.7726 70.7725 15.98 70.6535C16.0182 70.6305 16.0497 70.6132 16.085 70.5806C16.3643 70.3312 16.2356 69.8132 16.2003 69.6846Z" fill="#ECB1AF"/>
<path d="M18.1173 71.6569C17.6814 71.6511 17.3314 71.7106 17.0955 71.7663C16.6492 71.8699 16.3061 71.9524 16.0584 72.2555C16.0045 72.3207 15.7373 72.6488 15.8428 72.9884C15.9011 73.1765 16.0475 73.282 16.1062 73.3242C16.2018 73.3913 16.4201 73.5122 17.0901 73.4297C17.6568 73.3587 17.9402 73.3242 18.1079 73.1515C18.4084 72.8407 18.3949 72.2402 18.1173 71.6569Z" fill="#ECB1AF"/>
<path d="M17.2948 74.9608C16.8591 74.9551 16.5091 75.0145 16.2731 75.0702C15.8268 75.1757 15.4838 75.2563 15.2361 75.5594C15.1822 75.6247 14.9147 75.9527 15.0203 76.2923C15.0788 76.4803 15.225 76.5859 15.2839 76.6281C15.3794 76.6952 15.5978 76.818 16.2676 76.7336C16.8345 76.6645 17.1179 76.6281 17.2856 76.4554C17.586 76.1446 17.5726 75.5441 17.2948 74.9608Z" fill="#ECB1AF"/>
<path d="M16.1278 78.8074C15.7698 78.8016 15.4823 78.8496 15.2884 78.8956C14.9215 78.982 14.6397 79.0491 14.4361 79.2986C14.3918 79.3523 14.1721 79.6209 14.2588 79.901C14.3068 80.0545 14.4271 80.1427 14.4753 80.1773C14.5539 80.231 14.7333 80.3327 15.2838 80.2636C15.7494 80.2061 15.9823 80.1773 16.1201 80.0353C16.3672 79.7801 16.3561 79.2851 16.1278 78.8074Z" fill="#ECB1AF"/>
<path d="M9.87197 74.8208C9.82074 74.8208 9.7699 74.7997 9.73325 74.7575C9.66572 74.6807 9.67301 74.5637 9.74956 74.4965C9.79964 74.4524 10.9827 73.4125 11.8242 73.1151C11.9199 73.0806 12.026 73.1305 12.06 73.2264C12.0943 73.3224 12.0438 73.4279 11.9477 73.4624C11.1737 73.7368 10.0059 74.7632 9.99419 74.7747C9.95907 74.8054 9.91552 74.8208 9.87197 74.8208Z" fill="#272532"/>
<path d="M10.5303 77.5415C10.4699 77.5415 10.4106 77.5108 10.3751 77.4571C10.3194 77.3707 10.3438 77.2556 10.4292 77.2019C10.5424 77.1271 13.2089 75.4003 14.2421 75.3869C14.3411 75.3888 14.428 75.4675 14.4291 75.5692C14.4307 75.6728 14.3489 75.7553 14.2469 75.7572C13.4777 75.7668 11.3756 77.0273 10.6308 77.5108C10.5998 77.5319 10.5648 77.5415 10.5303 77.5415Z" fill="#272532"/>
<path d="M11.2293 80.2332C11.161 80.2332 11.0954 80.1967 11.0634 80.1295C11.0185 80.0394 11.0561 79.9281 11.1478 79.8821L13.6781 78.6407C13.7698 78.5966 13.8805 78.633 13.9256 78.7251C13.9705 78.8172 13.9327 78.9285 13.8411 78.9726L11.3107 80.2159C11.2844 80.2274 11.2568 80.2332 11.2293 80.2332Z" fill="#272532"/>
</svg>
