<svg width="56" height="56" viewBox="0 0 56 56" fill="none" xmlns="http://www.w3.org/2000/svg">
<path d="M28 56C43.464 56 56 43.464 56 28C56 12.536 43.464 0 28 0C12.536 0 0 12.536 0 28C0 43.464 12.536 56 28 56Z" fill="url(#paint0_linear_45_292)"/>
<path d="M18.9529 30.0451L22.2755 39.2415C22.2755 39.2415 22.6904 40.1002 23.1342 40.1002C23.5781 40.1002 30.1944 33.2184 30.1944 33.2184L37.549 19.011L19.0732 27.6723L18.9529 30.0451Z" fill="#C8DAEA"/>
<path d="M23.3582 32.4053L22.7194 39.1834C22.7194 39.1834 22.4539 41.2616 24.528 39.1834C26.6062 37.1052 28.5932 35.504 28.5932 35.504L23.3582 32.4053Z" fill="#A9C6D8"/>
<path d="M19.0151 30.3727L12.1831 28.1452C12.1831 28.1452 11.3659 27.8133 11.6314 27.0625C11.6853 26.909 11.7932 26.7763 12.1209 26.5481C13.635 25.4945 40.1458 15.9621 40.1458 15.9621C40.1458 15.9621 40.8925 15.709 41.3363 15.8791C41.5396 15.9538 41.6682 16.0409 41.776 16.3603C41.8175 16.4764 41.8382 16.7212 41.8341 16.9618C41.8299 17.136 41.8092 17.3019 41.7926 17.555C41.6308 20.16 36.7982 39.6024 36.7982 39.6024C36.7982 39.6024 36.5079 40.7389 35.475 40.7804C35.0975 40.7929 34.6371 40.7182 34.0895 40.2453C32.0569 38.4948 25.0299 33.7742 23.4785 32.7372C23.3914 32.6791 23.3665 32.6044 23.3499 32.5298C23.3292 32.4219 23.4453 32.285 23.4453 32.285C23.4453 32.285 35.6782 21.4127 36.0018 20.272C36.0267 20.1849 35.9313 20.1392 35.8027 20.1766C34.9896 20.4752 20.9067 29.3689 19.3511 30.352C19.2682 30.4101 19.0151 30.3727 19.0151 30.3727Z" fill="white"/>
<defs>
<linearGradient id="paint0_linear_45_292" x1="28" y1="56" x2="28" y2="0" gradientUnits="userSpaceOnUse">
<stop stop-color="#1D93D2"/>
<stop offset="1" stop-color="#38B0E3"/>
</linearGradient>
</defs>
</svg>
