<svg width="56" height="56" viewBox="0 0 56 56" fill="none" xmlns="http://www.w3.org/2000/svg">
<g clip-path="url(#clip0_45_284)">
<path d="M27.8884 0.0348454C43.6872 -0.442089 56.1487 12.5444 56.0049 27.707C55.8512 43.9277 44.2723 55.7119 27.9875 55.9901C13.1755 56.2485 -1.04143 44.1711 0.0594285 25.5608C0.808211 12.9021 12.7838 -0.774949 27.8884 0.0348454Z" fill="#4D74A5"/>
<path d="M29.3661 23.8119C29.3661 24.4726 29.3959 25.1384 29.3612 25.7942C29.3066 26.7878 29.2471 28.1838 30.0653 28.4223C30.9083 28.6657 31.672 27.4088 32.1728 26.6139C33.2489 24.9049 34.2258 23.1164 35.0836 21.2832C35.5795 20.225 36.1994 19.8176 37.3449 19.8623C39.1548 19.9368 40.9747 19.9269 42.7897 19.8722C44.5897 19.8176 44.8377 20.5032 44.2575 22.1228C43.2756 24.89 41.2673 26.9368 39.5565 29.1675C38.6044 30.4095 38.7284 31.0553 39.735 32.044C41.1334 33.4152 42.6508 34.677 43.6674 36.4208C45.0013 38.7111 44.2426 39.968 41.5946 40.2612C37.7763 40.6884 34.6572 39.7544 32.3315 36.545C31.9398 36.0035 31.434 35.0596 30.6157 35.3925C29.7579 35.7402 29.3215 36.7636 29.4058 37.643C29.6141 39.8885 28.3595 40.1916 26.5693 40.2413C21.2485 40.3903 17.6831 37.3449 14.6781 33.5443C12.3226 30.5635 10.478 27.2051 8.77213 23.792C7.20018 20.6423 7.67127 20.1405 10.9838 19.8027C14.5442 19.44 16.6319 20.533 17.6435 24.0702C18.0501 25.4812 18.7146 26.9964 19.9444 28.0497C20.3014 28.3577 20.594 28.9091 21.1692 28.6756C21.6353 28.4868 22.0072 28.0745 21.913 27.528C21.5361 25.3321 22.9792 22.8133 20.4402 20.9751C19.1906 20.0709 20.6287 19.2264 21.2684 19.0376C22.8899 18.5607 24.5809 18.0937 26.3214 18.4166C29.1678 18.9482 29.3661 19.3108 29.3661 23.8119Z" fill="white"/>
</g>
<defs>
<clipPath id="clip0_45_284">
<rect width="56" height="56" fill="white"/>
</clipPath>
</defs>
</svg>
